<?xml version="1.0" encoding="utf-8"?>
<!-- Generator: Adobe Illustrator 15.0.0, SVG Export Plug-In . SVG Version: 6.00 Build 0)  -->
<!DOCTYPE svg PUBLIC "-//W3C//DTD SVG 1.1//EN" "http://www.w3.org/Graphics/SVG/1.1/DTD/svg11.dtd">
<svg version="1.1" id="レイヤー_1" xmlns="http://www.w3.org/2000/svg" xmlns:xlink="http://www.w3.org/1999/xlink" x="0px"
	 y="0px" width="600px" height="300px" viewBox="0 0 600 300" enable-background="new 0 0 600 300" xml:space="preserve">
<g>
	<path fill="#98C570" d="M307.792,75.113c-1.136,1.483-0.568,4.888-3.411,4.663l-1.251-8.068
		C306.313,70.225,306.313,73.975,307.792,75.113"/>
	<path fill="#98C570" d="M315.862,84.32c-1.477,2.389-3.751,2.62-5.799,1.256l1.14-4.663
		C313.247,80.57,316.998,81.252,315.862,84.32"/>
	<path fill="#98C570" d="M555.62,37.148c-0.794,4.544-6.026,4.319-9.206,5.683c-8.643,6.135-17.854,12.956-24.214,21.937
		c-6.595-3.18-5.801,5.231-10.346,6.939c-0.912,3.975-4.322,7.155-4.661,11.478c-5.458,3.186-5.119,7.505-9.213,11.597
		c-1.702,0.57-2.271-1.482-3.41-2.385c-4.662-10.914,13.192-8.078,6.939-18.422c3.181-2.837,7.725-6.93,9.206-11.479
		c-2.384-1.134,0.227-3.185,1.139-4.657c4.545,0.564,4.545-4.555,6.93-6.94l-1.134-1.138c1.93-2.042-4.094-6.93,1.134-8.068
		c8.304-3.98,6.595,14.438,15.007,4.662C537.203,39.077,549.938,24.98,555.62,37.148"/>
	<path fill="#98C570" d="M487.637,93.644c-0.339,4.888-8.073,3.411-5.797,9.207c-12.053,3.186-14.438,15.577-21.828,22.967
		c0.227,1.478-0.907,3.75,1.14,4.663c-0.569,1.472-2.387,1.138-3.524,1.138c0-1.138,0.338-2.846-1.139-3.416h-2.276
		c0-1.139-0.339-2.954,1.137-3.523l-1.137-1.138c12.621-8.069,6.37-35.698,27.628-28.759L487.637,93.644z"/>
	<path fill="#98C570" d="M502.644,117.745c0.795,5.57-5.456,3.754-8.073,5.796l-1.138-1.134
		C495.14,120.36,499.459,115.816,502.644,117.745"/>
	<rect x="484.227" y="128.203" fill="#98C570" width="2.276" height="2.277"/>
	<path fill="#98C570" d="M482.979,135.142c0.34,1.134-0.569,1.703-1.139,2.268h-2.276v-2.268H482.979z"/>
	<path fill="#98C570" d="M272.095,218.129c-1.478,2.611-1.478,6.026-4.66,8.068C268.913,221.878,263.682,215.514,272.095,218.129"/>
	<path fill="#98C570" d="M335.419,67.045c18.188,18.188,35.236,42.058,60.021,49.566c6.025,6.135,13.529,1.473,20.688,1.133
		c0.913,8.074,12.167,4.094,17.285,3.524c5.457-3.524,5.796-9.775,10.458-12.735c-0.909-1.928,1.134-3.18,2.272-4.544h2.276
		c-0.568,11.483-12.621,25.922,3.524,33.42c1.703,3.984,0.795,8.873,5.683,11.483c4.662-1.139,6.365-9.433,12.729-6.935
		c-4.889,4.325-10.688,12.735-18.412,12.735c-4.662,2.842-2.96,6.365-8.073,8.068l-3.528-3.406l-3.406,3.406l1.14,1.139
		c-0.913,4.318-5.801,0-8.079,2.277c-6.591-4.324-10.908,3.523-16.14,5.796c-8.413,9.206-17.055,19.664-16.142,31.146
		c-2.047,0.914-0.913,3.182-1.139,4.546c1.364,2.39-2.61,5.575-1.138,9.323c-13.869-10.688-31.714-11.591-46.151-20.803
		c-9.212-2.271-19.557-0.23-26.491,6.934c-2.61,13.301-8.64-5.799-13.869-1.138c-2.045-2.041-5.457-0.907-8.07-1.139
		c-3.98,1.708-5.798,5.458-6.934,9.212c2.954,4.888,7.843,9.776,13.868,9.212l1.137-1.139c4.319,4.544,10.346,10.684,17.28,11.483
		c-1.135,11.817-18.075,0.338-23.078,10.345c-2.841,3.18,2.047,8.068-4.546,8.068c-1.478,3.749-5.798,6.369-9.209,3.524
		c-6.136-8.982,7.164-21.372-2.387-28.877c-3.408-2.611-8.071-4.887-10.345-8.068l2.274-15.007
		c6.707-7.734,15.574-7.96,18.531-18.418c0-6.591-13.302-8.643-3.524-15.002c9.547-0.23,16.14,10.114,26.602,4.657
		c3.066-2.842,6.251-5.796,5.683-10.345l-1.135-1.135c0.904-5.006-4.887-11.256-1.138-17.397c3.75-3.066,6.365-6.816,6.934-11.478
		l-1.138-1.14c1.364-0.568,1.138-2.276,1.138-3.523l-1.138-1.139c0.569-0.569,1.364-1.138,1.138-2.272
		c-1.138-6.026,7.161-12.96,1.135-19.556c0.23-1.134-0.57-1.816-1.135-2.385c0.227-4.318-4.892-9.207-4.661-14.89l-2.272-2.39
		c0.908-4.549-1.707-8.642,1.138-13.755l3.524,2.276C332.572,69.656,329.962,65.337,335.419,67.045"/>
	<path fill="#FFFFFF" d="M267.485,162.445c0.381-0.313-0.38-0.269-0.022-0.515c-0.067-0.066-0.134-0.133-0.201-0.179
		c-0.044-0.156-0.268-0.313-0.134-0.513c-0.089-0.18-0.156,0-0.269-0.112c0.18-0.135,0-0.402-0.179-0.402l0.135-0.203l-0.336-0.178
		l0.09-0.066c-0.201-0.225-0.022-0.537-0.403-0.604c0.09-0.023,0.18-0.136,0.09-0.203c-0.491,0.067-0.09-0.446-0.491-0.49
		c0.112-0.247-0.09-0.536-0.246-0.761c0.044-0.134,0.134-0.446-0.112-0.492c0.045-0.334-0.291-0.513-0.447-0.804
		c-0.381,0.224-0.157-0.471-0.492-0.112c-0.068-0.358-0.515-0.023-0.604-0.313c-0.269,0.067-0.492-0.112-0.67-0.201
		c-0.224-0.18-0.56-0.18-0.894-0.18c0,0.068,0.045,0.136-0.045,0.18c-0.112-0.134-0.268,0.135-0.469,0.067
		c-0.179-0.156-0.313,0.156-0.447,0.245l-0.09-0.156l-0.223,0.156l-0.089-0.111c-0.313,0.224-0.56-0.29-0.806,0
		c-0.425,0.179-0.76-0.269-1.119,0.111c-0.178-0.201-0.424,0.314-0.536,0c-0.2,0.112-0.335,0.382-0.603,0.447
		c-0.135-0.021-0.314,0.069-0.403-0.133c-0.156,0-0.38,0-0.313,0.202c-0.357-0.181-0.537,0.11-0.805,0.2l-0.044-0.157
		c-0.268,0.179-0.805-0.021-0.894,0.336l0.2,0.021c-0.268,0.313-0.603-0.089-0.915,0.201c0,0.358-0.381,0.426-0.649,0.605
		l0.135,0.133c-0.09,0.09-0.291,0.022-0.403,0.156l0.112,0.09c0.088,0.269-0.224,0.245-0.358,0.356l0.158,0.247l-0.493,0.2
		c0.067,0.403-0.491,0.112-0.357,0.56c-0.313,0.245-0.716,0.134-0.961,0.446c-0.157-0.335-0.358,0.157-0.649,0v0.067
		c-0.045,0.045-0.157,0.09-0.202,0.045l0.045-0.112c-0.112,0.022-0.313,0.157-0.401,0l-0.09,0.067
		c-0.357,0.136-0.536,0.09-0.872,0.247c0.581,0.492-0.246-0.023-0.202,0.358c-0.133-0.067-0.358,0.089-0.537,0.134
		c-0.135,0.312-0.582,0.179-0.715,0.513l-0.089-0.201c-0.291,0.022-0.089,0.381-0.313,0.493c-0.291-0.246-0.47,0.289-0.715,0v0.066
		c-0.023,0.09-0.112,0.157-0.203,0.134c-0.2-0.111-0.223,0.112-0.38,0.201l-0.111-0.134c-0.112,0.067-0.156,0.269-0.313,0.201
		c-0.023-0.021-0.067-0.044-0.044-0.067l-0.247,0.067l-0.089-0.156h-1.074c-0.29-0.379-0.446,0.179-0.76-0.112
		c0-0.424-0.38-0.156-0.581-0.134c-0.09-0.045,0-0.111,0.044-0.156c-0.089-0.202-0.201,0.066-0.268,0
		c-0.202-0.291-0.514-0.112-0.783-0.202v-0.043l-0.223-0.046l0.021-0.021l-0.401-0.091c0.066-0.021,0.045-0.088,0.045-0.111
		c-0.135-0.245-0.224,0.111-0.403,0.023c-0.068-0.023-0.022-0.112-0.045-0.202h-0.156c-0.179-0.244-0.447-0.313-0.671-0.469
		l0.022-0.045c0.044-0.09-0.067-0.135-0.112-0.202c-0.335-0.2-0.537-0.647-0.961-0.76c-0.425-0.647-1.23-0.246-1.811-0.647
		l0.156-0.246l-0.447-0.044c-0.045-0.091-0.089-0.292,0.044-0.359l-0.245-0.044l0.045-0.023c-0.314-0.111,0.2-0.379-0.112-0.535
		c0-0.09-0.023-0.18,0.067-0.247l-0.112-0.111l0.157-0.156l-0.157-0.201l0.268-0.156c0-0.179-0.201-0.09-0.268-0.179
		c0.134-0.112,0.089-0.225,0.045-0.403c0.335-0.246-0.336-0.47-0.045-0.76h-0.045c0.022-0.067,0.045-0.246-0.112-0.268l0.158-0.09
		c-0.223-0.27-0.38-0.492-0.649-0.693l0.044-0.021c-0.156-0.426-0.513,0-0.648-0.381c-0.179,0.447-0.536-0.135-0.804,0.045
		l0.045,0.045l-0.447-0.045c-0.023-0.067,0.044-0.111,0.089-0.157l-0.291,0.09v-0.2c-0.112-0.023-0.045,0.11-0.112,0.156
		c-0.089-0.022-0.224,0.021-0.291-0.046l0.045-0.11l-0.292-0.135c-0.425,0.2-0.873-0.447-1.207-0.648
		c-0.113-0.065-0.224-0.358-0.246-0.47l-0.426-0.157c0.158-0.179-0.111-0.245-0.201-0.335c-0.134,0.021,0.089,0.179-0.089,0.156
		c-0.045-0.47-0.604-0.2-0.604-0.671c-0.245-0.179-0.603-0.179-0.894-0.2c0.022-0.091,0.158-0.179,0-0.246
		c-0.111,0.021-0.38-0.089-0.469,0.111c-0.246,0.022-0.537,0.201-0.648-0.111l-0.157,0.155c-0.179-0.2-0.447-0.244-0.647-0.356
		c-0.179-0.179-0.671-0.291-0.403-0.559c-0.067,0-0.112,0.066-0.156,0.111l-0.202-0.157c-0.224,0.091-0.224-0.156-0.447,0
		c-0.066-0.223-0.492-0.021-0.313-0.313c-0.492-0.044-1.094-0.268-1.542-0.291c-0.291,0.134-0.693-0.292-1.006,0.044
		c-0.066-0.021-0.156-0.246-0.246-0.044l-0.023-0.245c-0.313,0.021-0.066,0.447-0.402,0.447c-0.045-0.068-0.179-0.091-0.134-0.202
		c-0.156,0.044-0.335,0.089-0.448,0.246c-0.179,0.134-0.357,0.068-0.559,0.068c0,0.424-0.47,0.044-0.603,0.335l-0.067-0.202
		c-0.246,0.381-0.671-0.089-1.096,0.112c-0.334-0.38-0.537,0.223-0.894,0.156c-0.09-0.29,0.224,0.045,0.29-0.224
		c-0.089-0.09-0.201-0.045-0.312-0.045c-0.112-0.245-0.492-0.066-0.537,0.156l-0.068-0.201c-0.291,0.067-0.603-0.111-0.804,0
		c-0.292-0.246-0.693,0.09-0.939,0.201c-0.023-0.066,0.044-0.088,0.089-0.111l-0.089-0.09c-0.179,0.113-0.403,0.247-0.515,0.358
		c-0.246,0.178-0.671-0.045-0.85,0.401c-0.178-0.133,0.157-0.224,0.09-0.268l-0.044,0.022c-0.381,0.021-0.604,0.112-0.94,0.245
		c-0.112-0.133-0.379-0.089-0.402,0.136c-0.424-0.202-0.693,0.313-1.029,0.313c-0.29-0.134-0.559,0.446-0.85,0l-0.089,0.156
		c-0.157-0.224-0.336,0.112-0.447-0.045c-0.402-0.045-0.604,0.492-0.961,0.604l0.135,0.178c-0.314-0.09-0.515,0.111-0.784,0.27
		c-0.021,0.446-0.558,0.536-0.603,0.895c-0.224,0.155-0.492,0.491-0.828,0.313c-0.268,0.111-0.201,0.491-0.492,0.447
		c-0.447-0.358-0.38,0.335-0.759,0.313c-0.202-0.246-0.537,0.09-0.738,0.245c0.292,0.358-0.336,0.136-0.358,0.491l0.134,0.113
		c-0.067,0.066-0.134,0.134-0.201,0.155c0.023-0.177-0.201-0.111-0.291-0.2c-0.268,0.446-0.649-0.135-0.917,0.29
		c0,0.022,0.045,0.046,0.023,0.09c-0.202-0.18-0.381,0.111-0.627,0.066c-0.291,0.156-0.089,0.336-0.201,0.537
		c-0.112,0.022-0.224,0.201-0.335,0.111c0.044-0.022,0.044-0.089,0.044-0.111c-0.358-0.021-0.269,0.582-0.716,0.515l0.158,0.246
		c-0.202,0.156-0.426-0.133-0.604,0.067l0.313,0.134c-0.156,0.156-0.38,0.18-0.469,0.358c-0.067-0.023-0.045-0.091-0.045-0.112
		c-0.291,0-0.514,0.269-0.805,0.112c0.157,0.401-0.402,0.044-0.492,0.313c-0.156,0.089-0.492,0.224-0.469-0.112
		c-0.135-0.09-0.27,0.156-0.403,0.044c0.537-0.223-0.313-0.669,0.357-0.894l-0.134-0.066c0.18-0.358,0.381-0.694,0.693-0.985
		c0.089-0.044-0.023-0.29,0.157-0.223c0-0.18,0.022-0.313,0.044-0.448c0.38-0.267-0.246-0.445,0.201-0.736
		c-0.291-0.112,0.09-0.491-0.291-0.604c0.246-0.112,0.224-0.515,0.202-0.715h-0.022c0.179-0.247-0.224-0.582,0.066-0.694
		c0.157-0.289,0.09-0.626,0.448-0.759l-0.045-0.046c0.202-0.268,0.179-0.603,0.291-0.916l-0.134-0.112l0.089-0.088
		c-0.067-0.225-0.089-0.516,0.089-0.65c0.112-0.156,0.09-0.29,0.022-0.469c0.113-0.022,0.202-0.045,0.18-0.201
		c0.268-0.202,0.246-0.694,0.67-0.604l-0.246-0.134l0.38-0.247l-0.179-0.066c0.089-0.09,0.179-0.134,0.291-0.134
		c-0.022-0.268,0.38-0.158,0.447-0.402h-0.156c0.246-0.314,0.514-0.583,0.805-0.806c0.066,0.023,0.178,0.156,0.223,0l-0.157-0.021
		c0.135-0.09,0.291-0.225,0.448-0.336c0.111-0.224,0-0.359,0.201-0.559c-0.246-0.269,0.201-0.514,0.157-0.761
		c0.066-0.268,0.357-0.558,0.692-0.647c-0.045-0.09-0.201-0.112-0.156-0.247c0.358-0.246,0.402-0.738,0.671-1.073
		c-0.224-0.223,0.179-0.447,0.045-0.693c-0.134-0.313,0.291-0.402,0-0.714c0.291-0.158-0.112-0.447,0.246-0.582l-0.134-0.157
		c0.29-0.023,0.335-0.335,0.603-0.358c0-0.089,0.045-0.201-0.066-0.201l0.066-0.09c0.045,0,0.112,0,0.135,0.045l0.268-0.247
		l-0.156-0.067c0.134-0.179,0.358-0.179,0.559-0.155c0.335-0.292,0.582-0.381,0.984-0.492l-0.134-0.112
		c0.224,0,0.38-0.291,0.493-0.38c0.089-0.067-0.089-0.224,0.111-0.202c0.135,0,0.336-0.112,0.336-0.201l-0.179-0.067
		c0.179-0.135,0.492-0.022,0.537-0.291c-0.045,0.023-0.067-0.021-0.09-0.044c0.09-0.135,0.269-0.358,0.403-0.157
		c0.045-0.335,0.492-0.537,0.402-0.917c0.381-0.179-0.022-0.67,0.447-0.76c-0.066-0.224,0.313-0.425,0.246-0.649l0.648-0.537
		l-0.09-0.066l0.202-0.134c0.112-0.538,0.805-1.051,0.76-1.611c0.358-0.2-0.134-0.468,0.202-0.67
		c-0.269,0.179-0.089-0.335-0.402-0.246c0.089-0.111,0.179-0.268,0.089-0.403c-0.268,0.403-0.201-0.224-0.492-0.112l0.089-0.179
		c-0.112-0.022-0.178-0.156-0.336-0.112c0.068-0.424-0.29,0.134-0.425-0.111c-0.066-0.045-0.066-0.134,0-0.179
		c-0.066-0.133-0.223-0.044-0.334-0.067l-0.045-0.29c-0.089,0.045-0.201,0.045-0.268,0.157c-0.067-0.089-0.157-0.268-0.336-0.201
		c-0.111-0.067-0.089-0.179-0.156-0.269c-0.066,0.358-0.291-0.09-0.47,0.067l-0.044-0.269c-0.157-0.201-0.246,0.201-0.357-0.045
		c-0.023-0.043,0-0.067,0.021-0.09l-0.201-0.021l0.045-0.045c0.045-0.066-0.045-0.112-0.067-0.157
		c-0.112-0.066-0.135,0.09-0.202,0.066c0-0.132-0.157-0.244-0.291-0.201c0.09-0.267-0.357-0.156-0.201-0.401
		c-0.112,0-0.224,0-0.246,0.134c-0.089-0.158-0.357-0.09-0.313-0.336c-0.089,0.134-0.246,0.089-0.357,0.156
		c-0.157-0.179-0.425-0.179-0.492-0.403c-0.111,0-0.223,0-0.246,0.136c-0.089-0.202-0.379-0.068-0.514-0.09
		c-0.157-0.201-0.335,0.045-0.492,0.09l-0.067-0.158c-0.112,0.158-0.38,0.202-0.581,0.112c-0.224,0.513-0.693-0.178-0.872,0.358
		c-0.134,0.043-0.357,0.245-0.447,0c-0.179,0.268-0.426,0.268-0.648,0.536c-0.224,0-0.425,0.335-0.648,0.112l0.089,0.201
		c-0.112,0.224-0.268-0.09-0.402,0.045c0,0.089,0,0.224,0.112,0.247c-0.224,0.156-0.56,0.133-0.671,0.402
		c-0.112,0.09-0.157,0.402,0.044,0.424c-0.067,0.134-0.224,0.313-0.38,0.201c-0.224,0.135,0.112,0.135,0.044,0.291
		c-0.246,0.113-0.022,0.247-0.112,0.403c-0.089,0-0.134-0.111-0.201-0.156c-0.045,0.045-0.134,0.089-0.134,0.156
		c0.022,0.112-0.202,0.335,0.044,0.358c-0.089,0.112-0.268,0.447-0.447,0.201v0.134c-0.111,0.089-0.201,0.313-0.424,0.268
		c-0.157,0.291-0.515,0.313-0.783,0.291c0.134,0.335,0.29-0.089,0.538,0.157l-0.561,0.246c-0.021,0.155,0.202,0.201,0.202,0.358
		c-0.022,0.043-0.089,0.043-0.134,0.043l0.134,0.269l-1.208,1.095c0.335,0.246-0.447,0.29,0,0.514
		c-0.201,0.179-0.268-0.156-0.447,0.135l0.113,0.112c-0.135,0.135-0.202,0.292-0.403,0.292c0.134,0.021,0.066,0.2,0,0.268
		c-0.313,0-0.067,0.402-0.447,0.379c0.179,0.202-0.179,0.268-0.201,0.425l0.044,0.045l-0.246,0.045
		c0.157,0.223-0.111,0.379-0.066,0.603c-0.134,0.067-0.357,0.224-0.201,0.403c-0.156,0.201-0.201,0.224-0.134,0.447
		c-0.066,0-0.134-0.024-0.201-0.09c-0.023,0.156-0.292,0.358-0.068,0.537c-0.066,0.043-0.134,0.155-0.246,0.11
		c0.09,0.09-0.179,0.292,0.09,0.314l-0.292,0.179c-0.044,0.09,0.09,0.112,0.09,0.202l-0.202,0.112
		c0.112,0.313-0.223,0.201-0.246,0.402c0.045,0,0.09,0,0.112,0.046c-0.067,0.178-0.291,0.089-0.358,0.065
		c0.089,0.269-0.246,0.269-0.313,0.382l0.202,0.111c-0.179,0.156-0.47,0.133-0.581,0.358c0.066,0.223,0.201,0.066,0.29,0.089v0.066
		c-0.089,0.089-0.156,0.224-0.29,0.202v-0.156c-0.022,0-0.045,0.021-0.067,0.043c-0.067,0.448-0.76,0.872-0.961,1.207l0.156,0.044
		c-0.112,0.18-0.291,0.314-0.447,0.47l0.089,0.089c-0.179,0.224-0.134,0.358-0.38,0.403c-0.021,0.134,0.045,0.268,0.134,0.313
		l-0.134,0.134c-0.021,0.157-0.201,0.068-0.268,0l0.067,0.202l-0.224,0.045c0.067,0.044,0.067,0.111,0.112,0.2
		c-0.067,0.135-0.135,0.023-0.246,0.023c-0.045,0.201-0.269,0.491-0.045,0.581l-0.112,0.113c0.157,0.066,0.112,0.268,0,0.357
		l0.157,0.135l-0.246,0.2l0.201,0.113l-0.112,0.11c-0.045,0-0.134,0.044-0.156-0.022c0.044,0.09-0.113,0.291,0.111,0.402
		c-0.066,0.267-0.334,0.09-0.402,0.202c0.045,0.088,0.09,0.2,0.202,0.223c-0.134,0.201-0.313-0.112-0.447-0.067v0.157
		c0.648,0.066-0.357,0.291-0.067,0.604h-0.201c-0.089,0.224,0.156,0.089,0.112,0.291h-0.201c0.156,0.269,0.022,0.38-0.157,0.604
		c0.09,0.357-0.425,0.089-0.357,0.469c0.067,0.179-0.112,0.448-0.157,0.692l0.202-0.089c0.022,0.2-0.202,0.111-0.336,0.29
		c0,0.179,0.089,0.313-0.044,0.515c0.133,0.245-0.202,0.224-0.314,0.335c-0.089,0.179,0.134,0.134,0.202,0.201l-0.09,0.067
		c0.067,0.156-0.112,0.648,0.179,0.56c-0.134,0.111-0.134,0.29-0.134,0.446c-0.336-0.066-0.113,0.403-0.448,0.336l0.045,0.022
		c-0.269,0.089-0.068,0.67-0.514,0.604c-0.179,0.134-0.202,0.402-0.09,0.492c-0.157,0.021-0.157,0.334-0.357,0.155l-0.089,0.157
		l0.179,0.045c-0.202,0.357-0.693,0.446-0.895,0.76l0.111,0.089l-0.201,0.291c-0.582,0.067-0.023,0.648-0.358,0.829
		c-0.09,0.089,0,0.2,0.089,0.2l-0.29,0.536h0.089v0.269h0.067c-0.201,0.29,0.268,0.425-0.112,0.693c0.246,0,0,0.356,0.291,0.313
		c-0.179,0.09-0.134,0.269-0.246,0.379c0.044,0.091,0.157,0.112,0.246,0.158c-0.134,0.066-0.224,0.334-0.402,0.245l-0.09,0.201
		l0.201,0.112l-0.157,0.088c0,0.381-0.313,0.426-0.402,0.761l0.157,0.067c-0.157,0.068-0.224,0.269-0.447,0.247l0.246,0.244h-0.246
		c0,0.27-0.156,0.403,0,0.649c-0.223,0-0.022,0.269-0.246,0.269l0.09,0.179l-0.246,0.021l0.089,0.091
		c0.022,0.2-0.224,0.088-0.291,0.245c-0.112,0.156,0.202,0.179,0.246,0.269c-0.157,0.021-0.202,0.134-0.291,0.245
		c0.045,0,0.111,0,0.134,0.044l-0.291,0.313h0.291l-0.335,0.336l0.201,0.111c-0.246-0.044-0.134,0.246-0.268,0.336
		c-0.045,0.179-0.134,0.514,0.067,0.604l-0.201,0.201c0.134,0.247-0.425,0.514,0,0.626c-0.224,0.045-0.292,0.291-0.313,0.491
		l0.156,0.09c-0.156,0.046-0.357,0.179-0.313,0.403c-0.111,0.156-0.134,0.4-0.156,0.604c-0.358-0.091-0.156,0.335-0.336,0.469
		c-0.469,0.201-0.29,0.828-0.872,0.961c0.246,0.627-0.603,0.447-0.581,0.984c0.157,0.179-0.291,0.156-0.111,0.357l-0.313,0.358
		l0.157,0.088l-0.135,0.112c-0.156,0.112-0.246,0.313-0.066,0.492l-0.247,0.021c-0.022,0.068,0.045,0.09,0.09,0.136l-0.179,0.2
		l0.179,0.112l-0.201,0.156c0,0.112,0.134,0.156,0.156,0.246c-0.067,0.067-0.134,0.133-0.201,0.156l0.111,0.134
		c0.045,0.022,0.045,0.09,0,0.112c-0.066,0.112-0.066,0.156,0.045,0.246l-0.156,0.155l0.201,0.158
		c-0.224,0.066-0.045,0.201-0.156,0.335l0.201,0.045c-0.112,0.067-0.112,0.18-0.179,0.268h0.134l0.045,0.247l0.067-0.091
		c0.045,0,0.112,0,0.134,0.045l-0.134,0.157c0,0.155,0.156,0.045,0.201,0.134l-0.045,0.156c0.112,0.157,0.247,0.357,0.179,0.604
		c0.045,0.179,0.112,0.245,0.269,0.245l-0.066,0.068c-0.336,0.313,0.246,0.268-0.045,0.581l0.201,0.066
		c-0.246,0.358,0.246,0.358,0.269,0.649h-0.224c-0.089,0.291,0.246,0.089,0.357,0.201c0.044,0.135-0.112,0.09-0.156,0.156
		c0.089,0.202,0.201,0.27,0.269,0.492c0.111,0,0.178-0.201,0.291-0.089c-0.403,0.223,0.246,0.29-0.09,0.537
		c0.135,0.11,0.314,0.021,0.403,0l-0.112,0.223l0.202-0.022c0.022,0.022-0.045,0.245,0.111,0.2l0.045,0.225
		c0.157-0.225,0.313,0.133,0.492,0c-0.111,0.223,0.291,0.179,0.113,0.38h0.447l-0.045,0.112c0.045,0.044,0.089,0.11,0.156,0.089
		l0.045,0.224c0.201-0.045,0.246,0.335,0.448,0.088c0.067,0.023,0.201,0.112,0.157,0.247c0.514-0.201,0.894,0.536,1.296,0.044
		l0.022,0.202c0.112,0.021,0.157-0.224,0.247-0.09l-0.112,0.111c0.067,0.045,0.335,0.112,0.47,0.045
		c-0.068-0.022-0.022-0.111-0.022-0.156c0.067,0.134,0.536-0.067,0.425,0.29c0.313-0.179,0.603,0.046,0.894,0.023l-0.045,0.045
		c0.023,0.245-0.335,0.044-0.246,0.134c0.202,0.045,0.492,0,0.649-0.045l-0.045,0.201l0.492-0.045
		c-0.134,0.313,0.313,0.157,0.492,0.202l-0.201-0.291c0.111,0.066,0.313-0.112,0.357,0.134c0.156-0.045,0.447-0.067,0.402-0.335
		c0.134,0.089,0.268-0.134,0.313,0.089c0.045,0,0.135,0.022,0.157-0.044l-0.067-0.068c0-0.156,0.179-0.2,0.269-0.29l0.044,0.111
		c0.135-0.356,0.715,0.068,0.739-0.356c0.245,0.044,0.313-0.201,0.559-0.046c0.134-0.066,0.269-0.245,0.402-0.2
		c-0.045,0.066-0.112,0.088-0.09,0.18c0.202-0.046,0.269-0.314,0.493-0.336l0.067,0.156l0.402-0.269
		c0.425,0.066,0.581-0.536,1.006-0.491c0.157,0.513,0.357-0.247,0.604-0.202c0.335-0.155,0.066-0.357,0.29-0.514
		c0.045-0.155,0.626-0.18,0.313-0.491c0.112-0.156,0.179,0.156,0.246,0.044c0.023-0.09-0.044-0.156-0.067-0.245
		c0.313-0.269,0.626-0.604,1.007-0.807c0.537,0.202,0.111-0.558,0.671-0.402c-0.023-0.313,0.402-0.044,0.537-0.246l-0.202-0.11
		c0.537-0.091,0.76-0.762,1.162-1.096c0.046-0.247,0.202-0.692,0.56-0.514c-0.045-0.201,0.179-0.067,0.246-0.157
		c0.156-0.246,0.358-0.044,0.514-0.156l-0.156-0.18l0.805-0.401c0.067-0.246,0.514-0.111,0.402-0.425
		c0.335-0.582,1.051-0.828,0.894-1.454c0.179,0.135,0.291-0.112,0.47-0.089l-0.112-0.111l0.045-0.045
		c0.112-0.09,0.291-0.022,0.313,0.111l0.201-0.223c0.224,0,0.56-0.047,0.715-0.203l0.291,0.112c0.089-0.089,0.201-0.179,0.201-0.291
		l0.157,0.091c-0.134-0.247,0.224-0.202,0.358-0.202c0.202-0.401,0.804,0.313,0.693-0.312c0.067-0.046,0.089,0.044,0.156,0.022
		c0.023-0.068-0.022-0.157,0.045-0.202c0.381,0.29,0.604-0.425,0.894-0.112c0.067-0.356,0.604-0.089,0.559-0.491
		c0.157-0.135,0.313-0.179,0.604-0.269c-0.179-0.066-0.023-0.246,0.066-0.335l0.201,0.2c0.201-0.29,0.559-0.357,0.805-0.603
		l0.09,0.133c0.045-0.066,0.112-0.089,0.202-0.089v-0.201c0.111-0.045,0.111,0.089,0.156,0.134c0.224-0.245,0.582-0.066,0.85-0.179
		l-0.157-0.202l0.045-0.021c0.492,0.021,0.849-0.201,1.23-0.38c0.112,0.089-0.045,0.179,0,0.291l0.09-0.09
		c0.089-0.022,0.134,0.067,0.201,0.09c0.089-0.491,0.715-0.179,0.917-0.604c0.313,0.088,0.336-0.112,0.537-0.291l0.045,0.179
		c0.313,0.112,0.313-0.357,0.604-0.38l0.156,0.18c0.247-0.27,0.67-0.427,1.006-0.448v0.067c0.247,0.09,0.47-0.179,0.648,0.09
		c0.358,0.134,0.269-0.402,0.604-0.246c-0.067,0.044-0.067,0.11-0.09,0.156c0.113-0.022,0.202,0.269,0.291,0.046
		c0.023,0,0.089,0,0.112,0.044l-0.088,0.09l0.2,0.201c0.179-0.046,0.425,0.156,0.582,0.021l-0.045,0.201
		c0.179,0.246,0.313-0.111,0.515-0.022c0.156,0.2,0.357-0.044,0.537,0.156c0.066,0.156,0.536,0.179,0.402,0.47
		c0.335-0.335,0.224,0.469,0.761,0.134l-0.135,0.269c0.202,0,0.38,0.023,0.582,0.045c0.604,0.045,0,0.581,0.469,0.738l-0.045,0.021
		l0.179,0.135c-0.134,0.179,0.223,0.269-0.045,0.447c0.133,0.269,0.357,0.38,0.56,0.515c0.021,0.09-0.045,0.134-0.09,0.2l0.202-0.11
		c0.022,0.022,0.067,0.022,0.044,0.066c-0.089,0.067,0,0.2,0.089,0.2c-0.335,0.269,0.313,0.313-0.089,0.538
		c0.179,0.111,0.291,0.356,0.247,0.559l0.357,0.065c-0.022,0.091,0.045,0.27,0.156,0.291l-0.223,0.091
		c0.023,0.021,0.045,0.088,0.112,0.065c0.09-0.089,0.201-0.156,0.313-0.065c-0.022,0.065-0.111,0.11-0.111,0.2
		c0.089,0.2,0.201,0,0.313,0.113c-0.022,0.065-0.112,0.11-0.067,0.2c0.402,0.111-0.022,0.782,0.515,0.693l-0.113,0.269l0.202,0.043
		l-0.157,0.292c0.045,0.089,0.157,0.112,0.224,0.156c-0.134,0.066-0.045,0.313-0.066,0.402c0.112,0.067,0.313,0.067,0.313,0.246
		h-0.247c-0.066,0.18,0.135,0.134,0.203,0.201c0.111,0.066-0.024,0.179-0.068,0.223l0.201,0.203l0.045-0.023v0.224h0.2
		c0.044,0.313,0.403,0.492,0.604,0.604c-0.044,0.134-0.201,0.044-0.245,0.134c0.133,0.156,0.156,0.313,0.402,0.269
		c-0.335,0.224,0.201,0.47,0.067,0.648l0.202,0.091l-0.112,0.066l0.089,0.09c0.201-0.024,0.201,0.268,0.471,0.289l-0.045,0.023
		c-0.022,0.022-0.044,0-0.067-0.023c-0.045,0.068-0.157,0.09-0.134,0.203c0.536-0.046,0.112,0.624,0.536,0.602
		c-0.246,0.179,0.134,0.27,0.045,0.47h0.313c0.067,0.179,0.2,0.313,0.2,0.491c0.091,0.113,0.091,0.202,0.203,0.358
		c0.291-0.156,0.559,0.357,0.715,0.515l-0.023,0.045c0.113,0.089,0.403,0.179,0.269,0.402c0.269,0.112,0.648,0.09,0.76,0.356
		l0.045-0.021c0.246,0.067,0.314,0.671,0.648,0.27l0.089,0.291c0.247-0.247,0.291,0.268,0.56,0.2l-0.089,0.067
		c0.157,0.269,0.514,0.201,0.76,0.335l-0.224,0.067l0.023,0.045c0.246,0.044,0.513,0.313,0.737,0.044
		c0.045,0.022-0.089,0.201,0.068,0.201c0.179-0.269,0.313-0.045,0.492,0.046c0.112-0.022,0.402,0.2,0.514-0.046v0.202l0.202-0.091
		l0.044,0.18c0.335,0.134,0.648-0.111,0.894-0.18l-0.135,0.201l0.448,0.046c-0.021,0.022-0.044,0.044-0.044,0.088l0.492,0.047v0.021
		h0.246l-0.044,0.044c0.178,0.669,0.671,0,1.006,0.156c0.111,0.134,0,0.29,0.2,0.336c0.201,0.177,0.515-0.336,0.694-0.046
		c0.112-0.044,0.2-0.2,0.268-0.246l0.045,0.046l0.29-0.201l0.022,0.046c0.068,0.109-0.065,0.109-0.111,0.155
		c0.134,0.089,0.402-0.024,0.558,0c-0.065-0.29,0.179,0,0.247-0.201c0.179,0.111,0.269-0.157,0.402-0.245
		c0.112-0.046,0.179,0.179,0.292,0.044c0.021-0.2,0.178-0.044,0.268-0.044l0.045-0.247c0.334,0.27,0.492-0.513,0.804-0.065
		c0.178-0.068-0.045-0.157,0.089-0.247c0.224,0.068,0.492-0.089,0.626-0.29v0.201c0.201-0.291,0.292,0.066,0.448-0.022l-0.112-0.135
		c0.085,0.046,0.175,0.061,0.265,0.062c0.016-0.016,0.039-0.014,0.063-0.001c0.425-0.03,0.864-0.373,1.147,0.142
		c0.247-0.067-0.089-0.179,0.046-0.269c0.089,0.066,0.246,0.112,0.335,0.022v0.201c0.178,0.2,0.38,0,0.559-0.111
		c0.112,0.089-0.112,0.178,0.067,0.245c0.201-0.045,0.246-0.089,0.201-0.245c0.179,0.044,0.447-0.09,0.492,0.111
		c0.089-0.09,0.201-0.201,0.313-0.27c0.269,0.158,0.334-0.11,0.582-0.133c0-0.247,0.269-0.314,0.47-0.358
		c0-0.448,0.447-0.244,0.692-0.356c0.247-0.358,0.47,0.134,0.715,0.09l-0.044,0.11c0.223-0.088,0.47,0.247,0.604-0.044
		c0.269,0.244,0.313-0.27,0.581-0.156l-0.179-0.248c0.56-0.022,0.402-0.671,0.738-0.961c0.156,0.023,0.335-0.022,0.402-0.201
		c-0.09-0.09-0.067-0.156,0.044-0.245c0.023,0,0.09,0,0.112,0.043c0.134-0.133,0.291-0.491,0.514-0.356l-0.023-0.044
		c0-0.068,0.068-0.112,0.112-0.157c0.425,0.134,0.358-0.402,0.76-0.29c0-0.045,0.023-0.091-0.045-0.112
		c0.179-0.135,0.202,0.09,0.381,0l-0.09-0.157c0.313-0.379,0.76-0.111,1.162-0.245v-0.201l0.202,0.111
		c0.201-0.357,0.648-0.336,0.76-0.715c0.447-0.179,0.582-0.447,0.984-0.805c0.336-0.471,0.336-0.895,0.559-1.297
		c0.536,0.156,0.224-0.716,0.804-0.56c0.246-0.111-0.201-0.268,0.112-0.357c0.626-0.045,0.693-0.692,1.253-1.006
		c0.179,0.09,0.379,0,0.514-0.089c0.201-0.426,0.715-0.313,1.05-0.56l-0.111-0.112c0.044-0.134,0.179-0.045,0.244-0.134
		c-0.088-0.291,0.269-0.447,0.426-0.604c-0.157-0.223,0-0.402-0.068-0.648c0.18-0.247-0.134-0.536,0.202-0.761
		c-0.291-0.156,0.201-0.29-0.045-0.446c0.134-0.38,0.648-0.335,0.715-0.716c0.357,0.022,0.67-0.066,0.894-0.2
		c0.224,0.401,0.582-0.358,0.717,0.089c0.177-0.155,0.58,0.111,0.691-0.089c0.112-0.091,0.291-0.022,0.314,0.112
		c0.112-0.091,0.224-0.203,0.29-0.314l0.157,0.111c0.156-0.2,0.468-0.244,0.737-0.312c0.202,0.021,0.336-0.538,0.515-0.158
		c0.224-0.201,0.425-0.537,0.715-0.445c0.023-0.404,0.649-0.381,0.447-0.806c0.447-0.291,0.022-0.67,0.203-1.006
		c-0.023-0.156,0.268-0.201,0.044-0.313c0.088-0.225,0-0.447,0.2-0.648c-0.044,0-0.065-0.021-0.088-0.045
		c0.023-0.336,0.47-0.604,0.291-0.896l0.402-0.2c-0.112-0.225,0.201-0.201,0.245-0.357l-0.044-0.046
		c0.603-0.291,0.201-0.894,0.647-1.162C267.396,162.714,267.709,162.558,267.485,162.445 M189.907,180.308h-0.044v-0.156
		C189.93,180.151,189.907,180.263,189.907,180.308 M209.066,154.241c0-0.068,0.09-0.156,0.158-0.156
		C209.268,154.195,209.111,154.195,209.066,154.241 M230.441,181.473h-0.135l0.135-0.112V181.473z M255.86,157.526h-0.067
		c0-0.044,0.067-0.066,0.111-0.066C255.904,157.505,255.882,157.526,255.86,157.526"/>
	<path fill="#FFFFFF" d="M201.98,133.069c-0.022-0.044-0.09-0.044-0.112-0.044l0.022,0.134L201.98,133.069z"/>
	<path d="M241.929,182.382c-0.011,0.013-0.02,0.035-0.02,0.074l0.157,0.021c-0.011-0.04-0.043-0.079-0.076-0.097
		C241.97,182.382,241.95,182.382,241.929,182.382"/>
	<path d="M244.525,182.566h0.066c0.023-0.022,0.046-0.044,0.046-0.089C244.591,182.366,244.436,182.544,244.525,182.566"/>
	<path fill="#FFFFFF" d="M338.053,163.188c0.359-0.591-0.525-0.459-0.459-0.885c-0.1-0.1-0.33-0.593-0.559-0.229
		c-0.328-0.492-0.557,0.196-0.885-0.196v0.064c-0.558-0.032-1.245,0.295-2,0.163c-0.1,0.132-0.296,0.264-0.395,0h-2.427
		c-0.327,0.132-0.852,0-0.95,0.426c-0.359-0.426-0.984,0.099-1.311-0.162c-0.329,0.327-1.116-0.033-1.346,0.688
		c-0.425,0.163-0.294-0.263-0.458-0.395c-0.296,0.033-0.396-0.359-0.591-0.294c-0.033-0.362-0.36-0.459-0.558-0.658
		c-0.131-0.228-0.264-0.587,0.066-0.719c-0.099-0.198-0.395-0.46-0.655-0.525c-0.033-0.559-0.658-1.017-0.296-1.607l-0.296-1.705
		c0.263-0.163,0.296-0.59,0.198-0.884c0.13-0.395,0.064-0.789,0-1.246c0.098-0.296-0.198-0.755-0.198-1.181
		c0.427-0.164,0-0.559,0.132-0.886c-0.688-0.558-0.82-1.344-1.05-2.099c0.296-0.459-0.296-1.018-0.426-1.444
		c0.263-0.26,0-0.557-0.163-0.818c-0.264-0.328,0.229-0.721-0.198-0.984c-0.032-0.788-0.621-1.411-0.393-2.196
		c-0.327-0.723-0.559-1.444-0.952-2.133c-0.162-0.556-0.917-1.247-0.655-2.131c-0.359-0.164-0.885-0.394-0.722-0.918
		c-0.131-0.623-0.818-0.393-0.917-0.951c-0.393-0.395-0.853-1.082-1.477-0.886c-0.098,0.099-0.262,0.035-0.36,0.066
		c-0.131-0.492-0.786-0.032-1.017-0.427c-0.099,0.459-0.59,0.099-0.885,0.165c-0.23,0.294-0.688,0.294-0.754,0.721l-0.229-0.163
		c-0.165,0.328-0.525,0.59-0.655,0.917c-0.625-0.198-0.526,0.721-0.887,0.853c-0.064,0.426-0.624-0.197-0.591,0.327
		c0.231,0.92-0.982,0.754-0.885,1.606c-0.426,0.034-0.164,0.657-0.229,0.886c-0.524,0.165-0.722,0.884-1.082,1.311
		c0.394,0.755-0.393,0.787-0.688,1.214c-0.065,0.426-0.13,0.884-0.196,1.179c-0.558,0.099-0.229,0.559-0.099,0.853
		c0.065,0.164-0.131,0.164-0.262,0.164c-0.197,0.296-0.066,0.46,0,0.756c-0.591,2.065-0.295,4.427-0.689,6.622l-0.229,0.23
		c-0.558,1.017-0.395,2.722-0.787,3.969l0.229,0.096c-0.755,0.427,0.163,1.215,0.13,1.838c1.051,0.557,0.593,1.836,0.886,2.655
		c-0.392,0.262-0.033,0.819-0.064,1.246c0.458,0.524,0.064,1.409,0.786,1.837c-0.162,0.523,0.492,0.787,0.327,1.245
		c0.656,0.722,0.918,1.607,1.247,2.458l-0.065,0.132c0.818,0.59,0.491,1.739,1.081,2.46c0.557,0.195,0.328,1.018,0.656,1.476
		c0.46,0.36,0.819,0.918,0.919,1.541c-0.198,0.36,0.131,0.59,0.426,0.655c0.066,0.164-0.099,0.197-0.065,0.361
		c0.656,0.459,0.523,1.376,1.246,1.706c-0.132,0.162-0.065,0.491,0.163,0.523c0.263,0.787,1.049,0.982,1.246,1.837
		c0.82-0.065,0.722,0.983,1.476,0.95c0.689,0.852,1.674,0.917,2.559,1.541c0.754-0.229,1.213,0.853,1.935,0.294
		c0.655,0.394,1.441,0.034,2,0.526c0.162-0.297,0.557-0.36,0.82-0.492c0.261,0.326,0.458-0.066,0.655-0.23
		c0.229,0.264,0.393,0,0.655,0c0.655-0.655,1.738-0.098,2.361-0.949c0.622,0.261,0.951-0.395,1.312-0.754
		c0.623-0.033,0.294-0.919,0.818-1.181c0.756,0.131,0.427-0.951,1.181-0.887c0.165-0.622,1.279-0.852,1.246-1.639
		c0.427-0.262,0-0.624,0.395-0.885c-0.493-0.493,0.722-0.886,0-1.248l0.491-0.359c-0.196-0.165-0.426-0.394-0.264-0.657h0.133
		l0.131-1.179c0.264-0.426-0.099-1.051,0.296-1.542c0-0.558,0.163-1.213,0.589-1.572c0.132-0.263,0.231-0.559,0.033-0.821
		c0.099-0.591,0-1.312,0.591-1.606c-0.36-0.754,1.016-0.721,0.591-1.476c0.457,0.065,0.294-0.525,0.72-0.525l0.133-0.818
		c0.163-0.099,0.459-0.132,0.326-0.428c-0.426-0.523,0.887-0.622,0.361-1.179C338.577,164.139,338.314,163.581,338.053,163.188"/>
	<path fill="#FFFFFF" d="M369.202,155.875c-0.162-0.918,0.623-1.738,0.262-2.657c-0.459-0.327,0.165-0.982-0.295-1.376
		c0.263-0.427-0.294-0.786-0.129-1.18c0.293-0.656-0.593-0.689-0.232-1.345c-0.557-0.361-0.525-0.918-0.59-1.607
		c0-0.326-0.523-0.263-0.229-0.656c-0.786-0.328-0.36-1.344-0.885-1.705c0-0.426-0.196-0.755-0.492-0.95
		c-0.491-0.065-0.951-0.558-1.41-0.394c-0.294-0.556-1.016-0.197-1.541-0.294c-0.196-0.132-0.295-0.329-0.591-0.23
		c-0.229-0.425-0.688-0.36-0.884-0.786c-0.329,0.13-0.329-0.23-0.656-0.165c-0.229,0.229-0.689-0.393-0.885,0.165
		c-0.198-0.23-0.689-0.263-0.918-0.395c-0.756,0.164-1.083-0.295-1.673-0.361c-0.164-0.393-0.524,0.264-0.688-0.13l-1.247,0.066
		c-0.163-0.032-0.688-0.196-0.786,0.13c-0.524-0.359-1.508,0.099-2.1,0.295c-0.032,0.197-0.163,0.524-0.489,0.395v0.195
		c-0.33,0.099-0.722,0.294-0.985,0.624c0.164,0.589-0.853,0.918-0.296,1.443l-0.359,0.229l0.983,1.771
		c0.263,0.034,0.558,0.132,0.491,0.458c0.033,0.491,0.524,0.623,0.395,1.182c0.787,0.918,0.425,2.034,1.016,3.017
		c0.196-0.198,0.46-0.099,0.525,0.163l-0.23,0.13c0.591,0.526,0.33,1.378,0.657,2.002c0.819,0.72,0.359,1.998,1.344,2.59
		c0.393,0.754,0.361,1.804,0.951,2.36c0.131,0.722,0.295,1.377,0.655,1.968c0.525,0.132,0.591,0.787,0.886,1.18
		c0.492-0.163,0.787,0.524,1.278,0.164c0.393,0.36,0.951,0,1.377,0.134c0.328-0.067,0.689-0.362,0.983-0.067
		c0.559-0.327,0.854-0.327,1.477-0.427c0.163-0.591,1.246-0.458,1.311-1.213c0.524-0.361,0.984-0.722,1.476-1.017
		c0.132-0.491,0.818-0.722,1.346-0.819c0.325-0.755,0.919-1.246,1.18-2C369.234,156.432,368.808,156.105,369.202,155.875"/>
	<path fill="#FFFFFF" d="M277.813,134.245c0.015,0.4,0.296,0.755,0.563,1.005c-0.105,0.252,0.207,0.104,0.236,0.236
		c0.207,0.296,0.532,0.312,0.769,0.518c0.192,0.295,0.754,0.281,0.694,0.77c0.311,0.265,0.385,0.635,0.666,0.93
		c0.251-0.059,0.118,0.237,0.266,0.311c0.592,0.208-0.044,0.769,0.34,1.124c0.355,0.118,0.355,0.591,0.755,0.636
		c0.044,0.414,0.562,0.207,0.605,0.635c0.045,0.134,0.31-0.03,0.265,0.193c0.119,0.103,0.119,0.266,0.296,0.266
		c0.163,0.428,0.621,0.665,0.873,1.064c0.177,0.532,0.709,0.503,1.05,0.798c0.133,0.03,0.147,0.281,0.339,0.236
		c0.015,0.489,0.591,0.354,0.591,0.829c0.132,0.326,0.532,0.428,0.798,0.636c0.237-0.045,0.311,0.221,0.503,0.236
		c0.103,0.311,0.384,0.044,0.532,0.296c0.459-0.044,0.71,0.207,1.198,0.103c0.133,0.119,0.206,0.282,0.369,0.296
		c0.37,0.029,0.606,0.029,0.872,0.221c0.133-0.014,0.296-0.014,0.355,0.104c0.163-0.029,0.428-0.088,0.532-0.029
		c0.267-0.147,0.428,0.177,0.695,0.059c0.104,0.177,0.355,0.073,0.475,0.177c0.118,0.06,0.279,0.03,0.369-0.073
		c0.295,0.028,0.428-0.148,0.621-0.296c0.118,0.207,0.207-0.058,0.31-0.102c0.208,0.028,0.266-0.164,0.458-0.135
		c0.103-0.339,0.532-0.103,0.666-0.428c0.073-0.104,0.163,0.089,0.207-0.059c0.237-0.163,0.444-0.428,0.592-0.71
		c0.177-0.474-0.251-0.888,0.045-1.301c0.339-0.517,0.354-1.197,0.295-1.848c-0.044-0.266,0.237-0.562-0.132-0.68
		c-0.06-0.088,0-0.192,0.029-0.267c-0.133-0.192-0.089-0.385-0.133-0.561c-0.058-0.119-0.118-0.266-0.058-0.399
		c-0.178-0.236,0.132-0.473,0-0.695c0.015-0.074,0.073-0.132,0.163-0.103c0.162-0.134-0.06-0.252-0.03-0.4
		c0.163-0.311,0.045-0.799,0.118-1.063c-0.118-0.193-0.103-0.489-0.325-0.563c0.132-0.354-0.015-0.708-0.104-1.034
		c-0.444-0.104-0.119-0.606-0.296-0.857c0.178-0.237-0.089-0.488-0.132-0.74c-0.148-0.577-0.74-0.695-0.902-1.287
		c-0.222,0.016-0.355-0.102-0.458-0.265l0.029-0.016c-0.044-0.118-0.221-0.221-0.339-0.221c-0.074,0.029-0.133-0.06-0.133-0.104
		c-0.355-0.03-0.487-0.325-0.828-0.325c-0.147-0.133-0.414-0.178-0.488-0.415c-0.104-0.119-0.236-0.266-0.443-0.251l-0.828-0.932
		c-0.222,0.044-0.326-0.133-0.473-0.208v0.03c-0.059,0-0.088,0.103-0.133,0.029v-0.06c-0.34,0.015-0.65-0.059-0.932-0.132
		c-0.103-0.134-0.369-0.045-0.458-0.192c-0.267,0.059-0.473-0.192-0.726-0.104c-0.222-0.193-0.518-0.163-0.738-0.311
		c-0.045-0.236-0.399,0.015-0.458-0.221c-0.237,0-0.267-0.267-0.504-0.311c-0.31,0.015-0.576-0.074-0.842,0.044
		c-0.147-0.207-0.325,0.207-0.399-0.044l-0.088,0.044c-0.015-0.014-0.03-0.029-0.03-0.044h-0.71
		c-0.237-0.088-0.473-0.162-0.724-0.059c-0.029-0.103-0.177-0.029-0.266-0.059c-0.104,0.133-0.444,0.074-0.533,0.296
		c-0.295-0.207-0.355,0.295-0.605,0.103c-0.37,0.296-0.755,0.178-1.035,0.532c-0.37-0.177-0.37,0.399-0.666,0.385
		c-0.133,0.281-0.458,0.133-0.563,0.473c-0.163,0.06-0.236,0.207-0.428,0.236c0,0.296-0.429,0.074-0.34,0.399l-0.03-0.029
		c-0.132,0.089-0.355,0.103-0.369,0.252l-0.163,0.014c-0.222,0.326-0.296,0.784-0.666,0.991c-0.147,0.133-0.133,0.384-0.325,0.429
		c-0.193,0.458-0.015,0.902,0.087,1.359C277.429,133.816,277.77,134.023,277.813,134.245"/>
	<path fill="#FFFFFF" d="M302.163,174.856c-0.118-0.104,0-0.193,0.059-0.267c-0.045-0.118-0.133-0.089-0.222-0.163l0.089-0.162
		c-0.222-0.191-0.236-0.531-0.267-0.828c-0.207-0.281-0.222-0.605-0.487-0.768c-0.045-0.399-0.547-0.252-0.636-0.504
		c-0.029,0.045-0.074,0.06-0.134,0.045c-0.029,0-0.029-0.045-0.029-0.074l-0.34-0.059c-0.147-0.134-0.487-0.06-0.621-0.148
		c-0.045,0.015-0.148-0.059-0.148,0.045l-0.134-0.045v0.015h-0.163c-0.146,0.016-0.295,0.222-0.398,0.09l-0.193-0.03
		c-0.177,0.147-0.43,0.118-0.666,0.074c-0.073-0.148-0.088,0.088-0.207,0c-0.37,0-0.399-0.369-0.591-0.606
		c-0.163-0.429-0.517-0.65-0.709-1.035c-0.266-0.162-0.281-0.487-0.4-0.768c-0.443,0.014-0.133-0.562-0.487-0.65
		c-0.09-0.341-0.533-0.134-0.606-0.504c-0.4-0.369-0.991-0.517-1.361-0.961c-0.294-0.059-0.471-0.281-0.768-0.31
		c-0.207-0.178-0.531-0.192-0.724-0.399c-0.237,0.178-0.34-0.178-0.563-0.134c-0.28,0.075-0.443-0.267-0.665-0.029
		c-0.074,0.016-0.178-0.015-0.208-0.074c-0.251,0.104-0.192-0.206-0.428-0.132c-0.502,0.162-0.533-0.43-1.035-0.222
		c-0.191-0.015-0.311-0.354-0.473-0.074c-0.074-0.192-0.325-0.119-0.458-0.222c-0.162-0.075-0.207-0.252-0.192-0.444
		c-0.014-0.206,0.237-0.029,0.267-0.222c0.014-0.429,0.636-0.252,0.65-0.71c0.266-0.029,0.414-0.325,0.502-0.531
		c0.267-0.088,0.37-0.533,0.666-0.592c0.074-0.324,0.428-0.503,0.605-0.77c0.044-0.059,0.147,0,0.192-0.059
		c0.162-0.28,0.428-0.531,0.71-0.709c0.399-0.312,0.872-0.622,1.257-0.99c0.235-0.015,0.235-0.474,0.531-0.342
		c0.31-0.324,0.681-0.663,0.99-1.02c0.414,0.029,0.577-0.575,0.976-0.575c0.221-0.325,0.562-0.489,0.887-0.725
		c0.326-0.489,0.961-0.415,1.242-0.874c0.132-0.161,0.488,0.017,0.488-0.294c0.399,0.206,0.207-0.385,0.532-0.325
		c0.119,0,0.148-0.134,0.134-0.236c0.104-0.164,0.073-0.503,0.339-0.474c0.133-0.311,0.148-0.68,0.296-0.99
		c-0.148-0.237,0.265-0.281,0.177-0.504c-0.043,0.03-0.148,0.104-0.177,0c-0.029-0.191-0.089-0.354,0.073-0.502
		c-0.236-0.147,0.029-0.384,0.06-0.562c-0.105-0.104-0.105-0.179-0.06-0.296c-0.192-0.4-0.177-0.931-0.399-1.301
		c0.147-0.089-0.044-0.118-0.03-0.208c-0.132-0.265-0.443-0.354-0.665-0.531c-0.119-0.592-0.785-0.577-1.08-1.064
		c-0.207,0.044-0.251-0.178-0.383-0.221l-0.045,0.059c-0.236-0.016-0.089-0.399-0.37-0.325c-0.133-0.311-0.547-0.296-0.725-0.578
		c-0.207,0.016-0.251-0.191-0.473-0.118c-0.059-0.222-0.399,0.016-0.458-0.208c-0.458,0.105-0.71-0.162-1.124-0.191
		c-0.162,0.133-0.621,0.133-0.798,0c-0.133,0.162-0.339-0.075-0.414,0.029c-0.088-0.104-0.325,0.014-0.428-0.104
		c-0.192-0.059-0.208,0.208-0.399,0.132c-0.177-0.206-0.429-0.014-0.666-0.103c-0.103,0.296-0.325-0.221-0.429,0.103
		c-0.237-0.177-0.562-0.117-0.798-0.058c-0.192,0.103-0.37,0.043-0.562,0.058c-0.074-0.028-0.311,0.076-0.341-0.073
		c-0.414-0.06-0.843-0.119-1.256-0.162v-0.06c-0.133-0.088-0.208,0.178-0.296-0.029c-0.163,0-0.311-0.355-0.503-0.075
		c-0.044-0.043-0.088-0.073-0.103-0.132c-0.297,0.029-0.519-0.148-0.725-0.163c-0.281-0.014-0.665-0.073-0.946-0.133
		c-0.177,0.164-0.326-0.059-0.488-0.103c-0.237,0.133-0.265-0.237-0.502-0.104c-0.267-0.235-0.813-0.044-1.065-0.222
		c-0.354-0.014-0.679-0.133-0.989-0.208c-0.208-0.205-0.785-0.132-1.11-0.102c-0.029-0.03-0.074-0.045-0.059-0.088h-0.177v-0.015
		c-0.178,0-0.37,0-0.459-0.12c-0.236,0.075-0.473,0.105-0.738,0.09c-0.208-0.208-0.532-0.06-0.798-0.09
		c-0.06-0.043-0.163,0-0.163-0.102c-0.4-0.105-0.799,0.087-1.169-0.045c-0.118-0.03-0.192,0.267-0.295,0.045
		c-0.163-0.03-0.458-0.03-0.504-0.045c-0.103,0.015-1.395,0.269-1.424,0.135c-0.118-0.029-0.311-0.06-0.325,0.104
		c-0.178-0.236-0.561,0.029-0.813-0.134l-0.06-0.073h-1.123c-0.044-0.06-0.177,0-0.177-0.104h-0.089v0.015
		c-0.06,0.029-0.104,0.074-0.178,0.06c-0.045-0.088-0.326,0.059-0.488-0.031v-0.044c-0.236,0.146-0.547,0.118-0.739,0.369
		c-0.325-0.088-0.312,0.355-0.606,0.34c-0.222-0.222-0.192,0.399-0.519,0.237c-0.058,0.192-0.369,0.088-0.369,0.385
		c-0.28,0.117-0.325,0.457-0.444,0.707c0.179,0.327-0.295,0.386-0.132,0.696h-0.089c-0.295,0.03-0.088,0.443-0.177,0.591
		c-0.178,0.237,0.192,0.503,0.281,0.681c0.325,0.458,0.976,0.547,1.095,1.152c0.399-0.118,0.207,0.399,0.486,0.445
		c0.016,0.132,0.237,0.116,0.149,0.294c0.133,0.207,0.325,0.311,0.517,0.369c-0.147,0.459,0.399,0.4,0.473,0.784
		c0.355,0.148,0.369,0.606,0.636,0.872c0.325-0.162,0,0.473,0.399,0.429c0.104,0.163,0.414,0.088,0.459,0.341
		c0.517,0.028,0.739,0.592,1.359,0.458c0.267,0.191,1.897-0.285,2.105,0.04c0.267-0.146,0.429,0.045,0.666,0.06
		c0.192-0.088,0.267,0.148,0.429,0.179c0.163,0.029,0.34,0.088,0.443-0.046c0.281,0.134,0.399-0.133,0.695,0
		c0.162-0.25,0.429,0.046,0.591,0.016c0.029-0.045,0.104-0.016,0.163-0.016c0.4,0.223,0.946-0.014,1.435,0.104
		c0.119,0.207,0.237-0.104,0.369,0.044c0.075-0.015,0.192,0.059,0.208-0.044c0.192,0.133,0.458,0.088,0.666,0
		c0.015,0.015,0.044,0.029,0.029,0.044c0.281-0.073,0.443,0.266,0.665,0.029c0.251,0.236,0.473-0.117,0.725,0.104
		c0.163-0.133,0.533-0.044,0.666-0.177c0.147-0.029,0.325-0.237,0.399-0.163c0.473-0.089,0.636,0.43,1.035,0.532
		c0.37,0.044,0.65,0.324,1.005,0.297c0.044-0.044,0.118-0.03,0.163-0.03c0.25,0.163,0.621,0,0.887,0.132
		c0.473-0.102,0.207,0.504,0.37,0.695l-0.296,0.031c-0.088,0.294-0.428,0.339-0.532,0.605c-0.207,0.104-0.385,0.398-0.666,0.457
		c-0.015,0.267-0.34,0.208-0.473,0.282c-0.088,0.457-0.502,0.474-0.694,0.828c-0.192,0.206-0.548,0.132-0.636,0.457
		c-0.296-0.146-0.252,0.325-0.562,0.208c-0.222,0.384-0.813,0.473-0.933,0.961c-0.162,0-0.103,0.206-0.295,0.133
		c0.014,0.324-0.399,0.073-0.399,0.37c-0.369-0.074-0.177,0.354-0.502,0.325c-0.103,0.22-0.428,0.206-0.488,0.429
		c-0.37-0.016-0.147,0.472-0.576,0.369c-0.014,0.236-0.177,0.265-0.325,0.369l-0.044-0.059c-0.148-0.046-0.163,0.103-0.252,0.162
		c-0.281,0.104-0.37,0.339-0.636,0.487c-0.163,0.045-0.354,0.207-0.473,0.37c-0.295-0.06-0.236,0.31-0.429,0.37
		c0.06,0.251-0.207,0.132-0.236,0.325c-0.371,0.028-0.428,0.531-0.799,0.502c-0.029,0.281-0.458-0.029-0.428,0.312
		c-0.178-0.046-0.222,0.088-0.341,0.118c-0.162,0.206-0.429,0.103-0.65,0.236v0.045c-0.207,0.015-0.384,0.236-0.502,0.383
		c-0.222-0.029-0.341,0.237-0.474,0.37c-0.132-0.089-0.31,0.074-0.429,0.133c-0.207-0.133-0.267,0.252-0.369,0.029
		c-0.325-0.177-0.369,0.296-0.592,0.266c-0.281,0.148-0.503,0.37-0.695,0.638c-0.03,0.072-0.045,0.22-0.177,0.162
		c-0.208,0-0.088,0.385-0.355,0.31c-0.119,0.384-0.562,0.355-0.768,0.637c0.014,0.103-0.045,0.192-0.134,0.221
		c0.03,0.237-0.31,0.267-0.265,0.532c-0.223,0.09-0.429,0.355-0.533,0.605c-0.369-0.103-0.117,0.489-0.531,0.43
		c-0.164,0.074-0.266,0.354-0.444,0.295c-0.326,0.311-0.518,0.681-0.591,1.139c0,0.134,0.118,0.268,0,0.37
		c0.029,0.266-0.104,0.518-0.133,0.783c0.163,0.267-0.237,0.548,0.059,0.799c-0.207,0.015-0.119,0.236-0.222,0.339
		c0.163,0.149-0.222,0.267-0.044,0.459c-0.266,0.532,0.221,1.021,0.014,1.566c0.074,0.37,0.267,0.712,0.458,1.036
		c0.252,0.089,0.474,0.251,0.696,0.428l0.798,0.029c0.118-0.117,0.281,0.104,0.37-0.088c0.665,0.016,1.286-0.104,1.922-0.207
		c0.429,0.163,0.517-0.695,0.931-0.236c0.207-0.134,0.339-0.06,0.547-0.192c0.222,0.177,0.281-0.295,0.592-0.133
		c0.295-0.325,0.856-0.134,1.167-0.458c0.222-0.207,0.459-0.281,0.754-0.37c0.207-0.354,0.666-0.089,0.872-0.473
		c0.312,0.147,0.385-0.296,0.637-0.162c0.191-0.267,0.605-0.061,0.887-0.134c0.309-0.281,0.606,0.104,0.976-0.03
		c0.369,0.356,0.561-0.221,0.96-0.103c0.356-0.192,0.799-0.089,1.169-0.297l0.088-0.072c0.326,0.132,0.341-0.414,0.666-0.222
		c0.045,0.146,0.208-0.119,0.282,0.088c0.162,0.015,0.399-0.015,0.531-0.088c0.489-0.045,0.917-0.016,1.332,0.058
		c0.28-0.118,0.605-0.118,0.886,0c0.192-0.177,0.385,0.134,0.577-0.058c0.31,0.088,0.591,0.146,0.857,0.266
		c0.399,0.06,0.739,0.118,1.138,0.162c0.059,0.163,0.266,0.089,0.398,0.104c0.459,0.103,0.651,0.518,1.021,0.783
		c0.089,0.133,0.119,0.266,0.296,0.31c0.222,0.46,0.622,0.651,0.946,1.035c0.339,0.591,0.96,0.991,1.553,1.315
		c0.028,0.118,0.25-0.044,0.235,0.134c0.193,0.118,0.414,0.295,0.666,0.341c0.281,0.25,0.666,0.487,1.064,0.427
		c0.325,0.193,0.325-0.354,0.666-0.191c0.104-0.251,0.429-0.045,0.592-0.235c0.177-0.135,0.398-0.148,0.576-0.297
		c0.326,0.03,0.488-0.163,0.797-0.132c0.149-0.223,0.445,0,0.622-0.179c0.414-0.015,0.621-0.369,1.005-0.487
		c0.088-0.179,0.088-0.415,0.163-0.607c0.147-0.118,0.295-0.221,0.502-0.221c0.296-0.178,0.459-0.577,0.74-0.739
		c0.384,0.029,0.487-0.503,0.753-0.473c0.045-0.399,0.488-0.296,0.666-0.622C302.533,175.418,302.474,175.034,302.163,174.856"/>
	<path fill="#FFFFFF" d="M114.85,165.682c1.095-1.334-0.86-1.219-0.589-2.785c-0.726-2.947,1.99-3.623,0.752-6.227
		c0.977-2.122,0.306-5.078-0.492-7.382c0.072-0.639,0.516-1.063,0.23-1.832c-1.002-0.297-0.865,2.107-1.856,1.897
		c-1.077-1.543-2.088,1.842-2.522-1.417c-0.604-0.267-0.503,1.152-1.094,0.972c-0.555-1.443-2.03-1.13-2.389-3.144
		c0.014-2.518-1.777-2.069-2.027-4.096c0.067-1.806-0.858-3.825-0.2-5.452c0.116-1.095-0.039-2.869-1.027-3.438
		c-0.465-2.717,0.112-4.868-0.642-7.632c-1.698-1.542-1.223-5.117-2.991-6.378c-0.794,1.827-1.44-0.593-2.222-1.283
		c-0.599-0.988-1.213,0.183-1.792,0.45c-0.523-0.101-0.695-1.244-1.094-1.271c-0.376,0.864-1.095,1.331-1.865,1.088
		c0.01,0.807-0.204,2.007-0.972,1.403c-0.731,0.38-0.546,1.613-0.634,2.524c-0.804,1.021-0.693,3.25-1.812,3.686
		c-0.468,2.499-2.216,2.491-2.535,5.235c-0.296,1.03,0.695,3.488-0.762,3.168c-0.238,0.664-1.082,1.423-0.84,2.285
		c1.214,2.063-0.313,3.909,0.9,5.972c-0.824,2.012,0.562,5.219-0.893,6.788c0.418,1.284-0.098,2.348-0.488,3.125
		c0.2,0.961,0.877,0.588,1.203,1.259c-0.135,2.087,1.112,2.886,1.862,4.121c-0.239,2.91,1.261,5.38,1.451,8.138
		c2.071,1.395,0.471,6.489,2.936,6.389c1.522,0.756,1.024,3.439,2.33,3.871c0.931,0.937,0.624,3.771,1.947,3.571
		c1.769-3.595,1.29,2.951,3.26,2.562c0.368,0.574,0.045,1.789,0.716,2.14c0.721-0.828,1.484,0.495,2.256,0.379
		c0.809-1.739,1.88,0.885,2.986-0.002c1.865,3.402,1.982-2.544,3.94-0.772c1.284-0.462,2.321-1.428,2.554-3.62
		c1.275-1.27,2.059-3.547,1.729-6.102c1.306,0.433,1.497-1.665,1.945-2.81l-1.171-2.157
		C115.92,168.308,114.746,166.866,114.85,165.682"/>
	<path fill="#FFFFFF" d="M185.182,154.354l0.147-0.147c-0.099-0.516-0.909-1.784-1.13-2.25c0.269,0.122,0.269-0.197,0.318-0.344
		c0.049-0.588-0.441-0.859-0.588-1.374c-0.319-0.025-0.099-0.442-0.172-0.662c-0.295-0.393,0.073-1.007-0.344-1.276
		c-0.147-0.982-1.226-0.712-1.422-1.644c-0.368-0.147-0.613-0.466-0.883-0.784c-0.663,0.072-1.005-0.638-1.717-0.614
		c-0.442-0.466-1.178-0.441-1.594-0.932c-0.565-0.025-1.056-0.49-1.717-0.441c-0.811-0.466-1.963-0.123-2.749-0.663
		c-0.957,0.024-1.668-0.736-2.649-0.712l-0.024-0.121c-0.49-0.246-1.202-0.124-1.644-0.223c-0.27-0.122-0.491,0.075-0.711-0.171
		c-0.564,0.394-1.103,0.148-1.814,0.221c-0.123,0.245-0.393,0.073-0.614,0.123c-0.563,0.22-1.153-0.024-1.667-0.123
		c-0.516-0.099-0.491-0.785-0.933-0.833c-0.196-0.468,0.197-1.007,0-1.473c-0.048-0.442-0.613-0.711-0.441-1.177
		c0.025-0.343,0.147-0.613,0.049-0.883c-0.172-0.344-0.024-0.564,0.049-0.883c-0.343-0.712-0.049-1.496-0.539-2.134
		c-0.221-0.221,0.222-0.295,0.098-0.49c-0.343-0.271-0.293-0.761-0.22-1.129c-0.981-0.343,0.098-1.398-0.81-1.767
		c-0.318-0.613,0-1.201-0.171-1.815c0.317-0.687-0.663-0.907-0.565-1.544c0.271-0.27,0.124-0.957,0.614-0.883
		c-0.026-0.074,0.025-0.147-0.049-0.171c0.269-0.296,0.735-0.466,0.613-0.981c0.417-0.395,1.079,0.048,1.496-0.223
		c1.006,0.197,2.208,0.246,3.14-0.22c0.589-0.294,0.908-0.735,1.472-1.005c-0.024-0.393,0.563-0.294,0.515-0.663
		c0.441-0.049,0.27-0.637,0.712-0.81c0.099-0.393,0.637-0.393,0.612-0.833c-0.196-0.171,0.271-0.221,0.05-0.393l0.221-0.098
		c0.049-0.27-0.074-0.466-0.221-0.662c0.27-0.245-0.369-0.441,0.049-0.614c-0.295-0.98,0.491-1.447,0.515-2.33h0.098
		c0.098-0.197,0.27-0.442,0.22-0.663c0.466-0.122,0.27-0.833,0.883-0.931c0.049-0.491,0.049-1.054-0.343-1.423
		c0.049,0,0.197,0,0.222-0.123c0.319-0.294-0.098-0.736,0.023-1.104c0.098-0.343-0.171-0.785,0.049-1.054
		c-0.49-0.54-0.22-1.3-0.294-1.962c-0.097-0.368-0.563-0.442-0.882-0.515c-0.27-0.393-0.712-0.343-1.031-0.589
		c-0.761-0.637-2.012-0.294-2.771-1.275l-0.099,0.097c-0.024-0.27-0.221-0.539-0.491-0.613c0.222-0.49-0.319-0.663-0.392-1.08
		c0.098-0.22-0.025-0.564,0.27-0.661c-0.221-0.663-0.344-1.326-0.344-1.987c0.222-0.172-0.023-0.54-0.22-0.736
		c-0.196-0.172-0.442-0.318-0.638-0.441c-0.27,0.294-0.49-0.221-0.785-0.049c-0.932,0.54-2.183,0.417-3.189,0.614
		c-0.294,0.147-0.391,0.244-0.687,0.368c-0.882,0.711-1.521-0.467-2.526-0.197c-0.147-0.245-0.319-0.121-0.442-0.392
		c-0.343-0.269-0.981-0.025-1.276-0.122c-0.44,0.196-0.981,0.196-1.421,0c-0.296-0.345-0.835-0.369-0.883-0.934l-0.786-0.048
		c-0.491,0.244-1.153,0.172-1.594-0.222c-0.394-0.197-0.81-0.515-1.227-0.785c-0.589-0.098-0.883-1.005-1.545-0.834
		c0.024-0.219-0.221-0.318-0.417-0.27c-0.833-0.588-1.545-1.055-2.429-1.422c-0.271-0.024-0.441-0.417-0.736-0.393
		c-0.319,0.221-0.981,0.048-1.201,0.491c0.122,0.269-0.221,0.637-0.05,1.005c-0.048,0.073-0.123,0.098-0.22,0.098
		c-0.27-0.147,0-0.441-0.074-0.588c-0.049,0-0.098,0-0.147,0.048c-0.221-0.195-0.27-0.343-0.344-0.611
		c-0.588-0.074-0.417-0.786-0.711-1.154c0.146-0.074,0.172,0.025,0.27-0.123l-0.27-0.319c0.074-0.295-0.147-0.466,0.098-0.737
		l-0.27-0.145c0.024-0.394-0.515-0.614-0.564-1.006l-0.711-0.54c-0.417-0.294-0.932-0.466-1.323-0.712
		c-0.394-0.024-0.712,0.123-0.981-0.245c-0.343-0.098-0.933-0.27-0.957,0.245c-0.442,0.271-0.417,0.933-0.54,1.326
		c0.222,0.711-0.27,1.423-0.662,1.864c-0.393,0.515,0.024,1.08-0.098,1.643c-0.221,0.515,0.049,1.105,0.27,1.448
		c-0.171,0.074-0.147,0.319-0.22,0.49c0.122,0.197,0.098,0.172,0.318,0.221c-0.269,0.368,0.344,0.515,0.123,0.932h0.048
		c0.026,0.196,0.319,0.393,0.099,0.613l0.245,0.123c-0.098,0.172,0,0.369,0.099,0.49c-0.173,0.761,0.612,1.275,0.49,2.085
		c-0.074,0.147-0.147,0.44-0.049,0.564c0.098,0.466-0.49,0.491-0.54,0.834c0.196,0.564-0.637,0.491-0.882,0.81
		c-0.81-0.491-0.957,0.638-1.717,0.563c-1.226,0.859-2.796,0.319-4.194,0.932l-0.073-0.098l-0.099,0.098
		c-0.833-0.147-1.791-0.147-2.526,0c-0.467,0.222-1.031,0.27-1.399,0.663c-0.196,0.441-0.711,0.637-1.104,0.882
		c-0.392,0.344-1.005,0.171-1.325,0.662c-0.343,0.196-0.785,0.319-1.03,0.564c-0.662,0.05-0.907,0.786-1.544,0.883
		c-0.074,0.123-0.173,0.294-0.074,0.442c-0.319-0.147-0.368,0.319-0.663,0.319c-0.76,0.441-1.25,1.202-2.085,1.619
		c-0.22,0.515-0.761,0.687-1.055,1.104c-0.098,0.195,0.024,0.318-0.221,0.417c-0.563-0.221-0.834,0.294-1.226,0.466
		c-0.343-0.072-0.27,0.344-0.417,0.442c0.613,0.147,0.957,0.245,1.643,0.221c0.834,0.465,1.816,0.246,2.748,0.417
		c0.466,0.442,1.029-0.123,1.545,0.245c0.417-0.172,0.76-0.172,1.177-0.344c0.957,0.049,1.618-0.809,2.575-0.491
		c0.344,0.319,1.005,0.319,1.349,0.221c1.105,0.417,2.38-0.441,3.361,0.27c0.172,0.369,0.221,0.638,0.319,1.056
		c0.293,0.245,0.687,0.49,1.103,0.588c0.565,0.343,1.202,0.563,1.767,0.908c0.368,0,0.662,0.368,1.005,0.27
		c0.221,0.024,0.344,0.319,0.54,0.27c0.098,0.171,0.343,0.171,0.343,0.393c0.466,0.025,0.516,0.466,0.932,0.589
		c0.466-0.172,0.688,0.269,1.153,0.123c0.442,0.319,1.228-0.123,1.595,0.392c-0.074,0.515,0.638,0.246,0.564,0.761
		c0.367-0.147,0.392,0.49,0.784,0.27c0.172,0.172,0.441,0.147,0.54,0.344c0.417-0.417,0.318,0.466,0.711,0.221
		c0.147,0.171,0.343,0.318,0.392,0.539c0.393,0,0.27,0.589,0.664,0.737c0.024-0.049-0.05-0.147,0.048-0.172
		c0.123,0,0.222,0.074,0.27,0.172l-0.221,0.097l0.466,0.05c0,0.27,0.295,0.393,0.221,0.687h0.147
		c0.22,0.416,0.097,0.833,0.441,1.153l-0.172,0.219c0.049,0.222,0.197,0.393,0.344,0.589c0.098,0.246,0,0.663-0.048,0.908
		c0.122,0.123-0.05,0.417,0.17,0.541c-0.269,0.367,0.344,0.687,0,1.054c0.173,0.124,0.246,0.318,0.442,0.368
		c0.834,0.393,0.589,1.301,1.104,1.987c-0.368,0.123,0.196,0.319-0.123,0.466c0.221,0.147,0.073,0.344,0,0.491
		c0.54,0.27,0.221,0.956,0.711,1.276l-0.148,0.096c0.516,0.418,0.295,1.055,0.54,1.545l0.123-0.049c0,0.442,0.221,0.835,0.539,1.055
		c0.123,0.147-0.098,0.27,0.123,0.368c0.442,0.245,0.369,0.687,0.81,1.005c-0.172,0.663,0.466,1.032,0.294,1.693
		c-0.416,0.369,0.098,0.957-0.245,1.349c0.123,0.344,0.025,0.688,0.295,0.884l0.098-0.074c0.318,0.589,0.098,0.958,0.344,1.595
		h0.097c0.173,0.368,0.639,0.662,0.221,1.104c0.319,0.588-0.024,0.809-0.098,1.447c0.27,0.319-0.124,0.295,0,0.663
		c-0.27,0.269-0.319,0.49-0.221,0.883c-0.344,0.147-0.099,0.637-0.491,0.712c-0.245,0.416-0.563,0.71-0.735,1.225
		c-0.318-0.196-0.466,0.319-0.712,0.393c-0.048,0.417-0.564,0.417-0.71,0.712c-0.393-0.172-0.271,0.662-0.614,0.318
		c-0.148,0.416-0.711,0.538-0.932,0.956c-0.491,0.026-0.882,0.49-1.374,0.613c-0.442,0.123-0.098,0.564-0.393,0.812
		c-0.343,0.096-0.442,0.636-0.883,0.489c0.024,0.122-0.025,0.221-0.123,0.295c-0.515,0-0.785,0.342-1.153,0.538
		c-0.146,0.369-0.637,0.394-0.833,0.735c-0.197,0.196-0.663-0.047-0.663,0.271c-0.27,0.27-1.103,0.441-1.03,1.105
		c-0.124,0.293-0.442,0.342-0.687,0.49c-0.27,0.489-0.884,0.441-1.03,0.883c-0.049,0.244-0.589,0.221-0.49,0.538
		c-0.294-0.047-0.196,0.54-0.614,0.345c-0.27,0.049-0.442,0.245-0.563,0.441c-0.442-0.024-0.417,0.393-0.712,0.612
		c-0.908,0.417-0.98,1.351-1.889,1.718c0,0.049-0.024,0.122,0.025,0.146c-0.049,0.148-0.147,0.024-0.245,0.05l-0.81,0.736v0.146
		c-0.343-0.024-0.392,0.344-0.514,0.563c-0.074,0.123-0.024,0.491-0.319,0.441c-0.27,0.394-0.711,0.442-0.981,0.934
		c-0.589,0.048-0.884,0.71-1.275,1.054c-0.393,0.024-0.099,0.688-0.564,0.761c0.123,0.246-0.245,0.271-0.099,0.467
		c-0.084,0.069-0.08,0.237-0.113,0.335c-0.034,0.014-0.059,0.039-0.081,0.069c-0.026-0.001-0.057-0.01-0.101-0.037
		c-0.145,0.191-0.227,0.419-0.285,0.657c-0.045,0.015-0.094,0.023-0.157,0.02c-0.208,0.772-0.81,1.786-1.59,2.053
		c0.41,0.54-0.206,0.979-0.316,1.478c-0.921,0.481-0.055,1.403-0.155,2.102c0.467,0.114,0.502,0.661,0.44,0.92
		c0.36,0.478-0.074,1.046,0.254,1.527c0.629,0.794,0.446,1.818,1.264,2.499c0.526,0.034,0.3,0.792,0.745,1.015
		c0.324,0.355,0.212,1.375,0.961,1.06c0.213,0.124,0.259,0.309,0.365,0.507c0.506,0.54,0.876,1.177,1.098,1.884
		c0.816,0.281,1.002,1.213,1.519,1.815l0.991-0.02c0.314,0.311,0.657,0.277,1.003,0.199c-0.017,0.024-0.04,0.041-0.055,0.067
		c0.024,0.393,0.564,0.32,0.614,0.712c0.441,0,0.957,0.172,1.373,0.172c-0.074,0.343,0.32,0.098,0.392,0.368
		c0,0.049,0.05,0.122-0.048,0.171l0.318,0.294c-0.171,0.614,0.564,0.441,0.711,0.812c0.859,0.465,1.669-0.418,2.281-0.812
		c0.05-0.294,0.442-0.121,0.59-0.392c0.539-0.467,1.079,0.271,1.544,0.392c0.221,0.418,0.76,0.27,1.055,0.638
		c0.76-0.098,1.57,0.394,2.33,0.394c0.663-0.023,1.325,0.417,2.035,0.122c0.663,0.147,1.252,0.246,1.816,0.442
		c0.614,0.612,1.497,0.588,2.306,0.761c0.613,0.343,0.858,0.783,1.447,1.226c0.491,0.638,0.907,1.104,1.667,1.276
		c0.345,0.074,0.466,0.415,0.589,0.711c0.319,0.956,1.301,0.317,1.987,0.439c0.442-0.122,0.54,0.591,0.932,0.395
		c0.344,0.246,0.883,0.27,1.226,0.636c0.124,0,0.393,0.075,0.442-0.145c0.073,0.023,0.147-0.026,0.171,0.049
		c0.736-0.762,1.84-0.885,2.698-1.275c0.932-0.05,0.883-1.056,1.546-1.498c-0.172-0.147,0.147-0.147,0.049-0.269
		c0.098-0.564,0.932-0.736,0.784-1.373c0.541-0.443,0.81-1.252,1.055-1.938h0.098c-0.073-0.172,0.123-0.196,0.172-0.172
		c-0.098-0.394,0.147-0.539,0.319-0.81c-0.123-0.271,0.367-0.319,0.27-0.662l0.171,0.049v-0.172c-0.368-0.317,0.319-0.441,0.27-0.76
		c0.761-0.343,0.343-1.276,0.515-1.988c0.785-0.687-0.049-2.131,0.589-2.989c-0.49-0.32,0.025-1.059-0.367-1.425
		c0.245-0.734,0.147-1.666-0.074-2.38c0.221,0.099,0.123-0.169,0.221-0.269c-0.319-0.736,0.025-1.496-0.147-2.257
		c0-0.05,0.073-0.099,0.147-0.073c-0.049-0.49,0.368-0.662,0.515-1.055c0.074-0.296-0.074-0.834,0.171-0.859
		c-0.024-0.441-0.27-0.785-0.123-1.324c-0.318-0.317,0.074-0.81-0.172-1.177c0.172-0.393-0.244-0.54-0.221-0.835
		c-0.466-0.197-0.023-0.761-0.27-1.079c-0.147-0.049-0.048-0.318-0.27-0.171c-0.049-0.049-0.122-0.099-0.074-0.172h0.246
		c-0.27-0.246-0.172-0.712-0.246-0.982c0.271-0.194,0.124-0.489,0.246-0.783c-0.246-0.614-0.246-1.276-0.467-1.939
		c-0.269,0-0.048-0.294-0.22-0.367c0.074-0.27-0.196-0.516,0.123-0.687c0.514-0.048-0.172-0.319,0.171-0.54
		c-0.075-0.49,0.171-1.201,0.146-1.667c0.786-0.024-0.047-0.589,0.222-0.933l0.123,0.049c-0.073-0.489,0.467-0.393,0.711-0.589
		c0.687-0.466,1.57-0.833,1.814-1.717c0.32-0.024,0.442-0.466,0.785-0.563c0.148-0.761,1.08-1.252,1.644-1.692
		c0.417-0.368,0.834-0.663,0.786-1.325c0.319-0.172,0.833-0.344,1.275-0.491c0.686,0.074,1.372-0.76,2.037-0.221
		c0.17,0.196,0.612,0.319,0.759,0.589c0.834,0.491,0.466,1.767,1.35,2.208l-0.025,0.049c-0.05,0-0.123,0-0.147-0.049
		c-0.049,0.172,0.098,0.196,0.173,0.294c-0.049,0.343,0.391,0.394,0.441,0.663c0.368-0.074,0.27,0.393,0.588,0.416
		c0.49,0.516,0.614-0.393,1.055-0.416c0-0.908,1.079-0.345,1.546-0.688c0.097-0.515,0.909,0.842,0.713,0.475
		c-0.025-0.271,0.023-0.639,0.146-0.932c0.196,0.048,0.344-0.099,0.491,0.098c0-0.024,0.049-0.05,0.024-0.098l0.81-0.651
		c0.417-0.099,0.465-0.564,0.735-0.76c0.073-0.247,0.246-0.639,0.491-0.663C185.23,154.428,185.255,154.379,185.182,154.354
		 M153.292,175.136c-0.222,0.884-0.098,1.545-0.564,2.306c0.148,0.613-0.491,0.661-0.539,1.202c-0.369-0.05-0.369,0.441-0.614,0.516
		c-0.049-0.099-0.123,0-0.171,0.049c-0.172,0.073-0.05,0.196-0.05,0.317c-0.44-0.121-0.368,0.54-0.76,0.442
		c-0.097,0.369-0.442,0.369-0.736,0.467c-0.416-0.196-0.563,0.392-0.931,0.195c-0.638,0.072-0.958,0.072-1.546,0.246
		c-0.146-0.05-0.54-0.294-0.54,0.048c-0.293-0.074-0.539,0.246-0.784,0c-0.32,0.418-0.736-0.048-1.105,0.1
		c-0.049-0.074-0.049-0.174-0.122-0.222c-0.172,0.418-0.295-0.271-0.491,0.074l-0.222-0.222l-0.048,0.048
		c-0.196,0.025-0.147-0.195-0.32-0.268l-0.073,0.097c-0.27-0.146-0.491-0.317-0.588-0.613c0.024-0.393,0.318-0.514,0.098-0.932
		c0.394-0.393-0.048-1.373,0.663-1.545c0.025,0.023,0.049,0.074,0.098,0.051c0.171-0.197,0.073-0.443,0.171-0.664l0.123,0.049
		c0.172-0.317,0.172-0.761,0.589-0.809c-0.246-0.246,0.22-0.32,0.073-0.613c0.442,0,0.564-0.712,0.981-0.712
		c0.074-0.343,0.515-0.147,0.564-0.49c0.638,0.073-0.025-0.76,0.613-0.516c0.319-0.146,0.099-0.785,0.541-0.613
		c0.196-0.417,0.491-0.833,0.932-0.98c0.123-0.245,0.197-0.76,0.515-0.661c0.099-0.174,0.099-0.714,0.417-0.443
		c0.27-0.147,0.172-0.441,0.247-0.662c0.368,0,0.44-0.393,0.662-0.393c0.123-0.049,0.123-0.197,0.049-0.27
		c0.318,0.172,0.196-0.393,0.54-0.27l0.172-0.222c0.367,0.345,1.079,0.54,1.594,0.442l0.22,0.221c0.049-0.05,0.098-0.1,0.172-0.074
		c-0.049,0.221,0.222,0.246,0.124,0.442l0.147,0.221c-0.173,0-0.173,0.22-0.099,0.293c0.516,0.173-0.098,0.639,0.368,0.835
		c0.024,0.221-0.122,0.54,0.123,0.663c-0.147,0.563,0.074,1.005,0.172,1.545C153.391,174.031,153.808,174.891,153.292,175.136"/>
	<path fill="#FFFFFF" d="M193.424,87.77c0.202,0.482,0.693,0.224,0.995,0.503c0.246-0.894,0.995,0.067,1.487-0.301
		c0.256,0.402,0.928,0,0.994,0.592c-0.044,0.056-0.123,0.101-0.089,0.201c0.167,0.525,0.47-0.167,0.693,0.201l0.101-0.101
		c0.201,0.123,0.648-0.123,0.895,0.101c0.749-0.547,0.615,0.57,1.095,0.793c-0.178,0.156-0.079,0.402-0.1,0.604
		c0.793,0.19-0.347,1.017,0.592,0.995c0.38,0.693-0.771,1.789,0.201,2.381c-0.369,0.257-0.123,0.771-0.302,1.096
		c0.704,0.124,0.056,0.625,0.402,0.994c-0.425,0.022-0.324,0.571-0.201,0.794l0.403,0.502c-0.426,0.247-0.828,0.67-0.795,1.197
		c0.09,0.167,0.392,0.245,0.292,0.492l-0.101,0.101c0.123,0.201-0.223,0.469-0.101,0.793c-0.838,0.425-0.022,1.051,0,1.599
		c-0.838,0.223,0.279,0.872-0.492,1.296l0.101,0.09l-0.303,0.302l0.202,0.202l0.101-0.102c0.715,0.995-0.917,0.817-0.503,1.688
		c-0.291,0.034-0.514,0.28-0.794,0.402c0,0.101-0.021,0.246,0.101,0.302c-0.223,0.29-0.726,0.145-0.793,0.592l0.101,0.1
		c-0.034,0.269-0.324,0.269-0.503,0.403c-0.592-0.48-0.794,0.861-1.486,0.492c-0.324,0.023-0.672,0.369-0.996,0.101
		c-0.603,0.124-1.151,0.973-1.799,0.402c-0.146,0.124-0.391,0.09-0.592,0.09c-0.269-0.022-0.85,0.079-1.196-0.09
		c0.022-0.1-0.045-0.156-0.101-0.2c-0.67-0.179-0.648,0.715-1.386,0.391c-0.794-0.29-0.57-1.665-1.789-1.185
		c0.045-0.604-0.648-0.302-0.906-0.604c-1.263-0.224-1.319-1.744-2.482-1.99c-0.245-0.592-0.748-1.195-1.296-1.688
		c-0.124-0.28-0.101-0.726-0.492-0.793c0.044-0.447-0.157-0.996,0.29-1.297c-0.447-0.793,0.056-1.944-0.492-2.782
		c0.67-0.258,0.391-1.074,0.593-1.6c-0.101-0.29-0.224-0.547-0.202-0.894c0.101,0.023,0.157-0.045,0.202-0.101
		c-0.168-0.146-0.123-0.447,0-0.593l0.201-0.202c-0.302-0.268,0.124-0.492,0.101-0.793c0.448-0.223,0.895-0.301,0.995-0.793
		c0.369-0.18,0.123-0.604,0.202-0.906c0.816-0.414,1.464-0.961,1.989-1.688c0.525,0.28,0.615-0.447,1.096-0.591
		c0.716-0.023,1.442-0.303,1.788-0.996c0.247-0.021,0.492,0.225,0.694,0c0.301,0.347,0.402-0.447,0.793-0.201
		c0.279-0.771,0.771-0.022,1.297-0.1C192.596,88.721,192.899,87.849,193.424,87.77"/>
	<path fill="#FFFFFF" d="M177.507,99.723c0.167-0.062,0.286,0.109,0.424,0.161c0.376,0.112,0.899-0.273,1.105-0.093l0.142-0.005
		c-0.025,0.058-0.079,0.144-0.006,0.17c0.463-0.004,0.52-0.086,0.579,0.371c-0.06,0.086-0.071,0.188,0.062,0.172
		c0.163-0.004,0.328,0.018,0.487-0.134c0.02,0.345,0.716,0.18,0.401,0.677c0.167-0.09,0.415-0.098,0.504-0.016
		c0.404,0.128-0.088,0.675,0.505,0.617c-0.146,0.044-0.129,0.163-0.175,0.232c0.026,0.361,0.758,0.372,0.602,0.795
		c0.095,0.224,0.265,0.467,0.258,0.682l-0.2,0.12c0.111,0.11,0.037,0.429,0.268,0.506c-0.459,0.275,0.164,0.397-0.212,0.641
		c0.245,0.433,0.609,0.674,0.833,1.17c-0.128,0.361-0.137,0.69-0.021,0.974c-0.286,0.168-0.48,0.446-0.43,0.642
		c0.107,0.043,0.126,0.155,0.308,0.11c-0.123,0.303-0.013,0.616-0.349,0.927c0.291,0.177-0.363,0.572-0.298,0.814l-0.096,0.06
		c0.096,0.172,0.07,0.388-0.078,0.636c-0.219,0.019-0.326,0.209-0.371,0.358c0.208,0.004,0.144,0.193,0.057,0.337
		c-0.965,0.218-0.157,0.939-1.165,1.017c-0.047,0.058-0.003,0.085,0.019,0.113c-0.188,0.063-0.042,0.142-0.106,0.235
		c-0.21,0.036-0.36,0.209-0.439,0.355c-0.079,0.002-0.179-0.006-0.249,0.07c-0.043,0.098-0.4,0.269-0.518,0.357
		c-0.139-0.081-0.422-0.071-0.646,0.021c-0.079,0.064-0.219,0.097-0.223,0.182c0.051,0.169-0.356,0.357-0.527,0.533
		c-0.156-0.166-0.535-0.022-0.736-0.089c-0.142-0.013-0.275,0.02-0.415,0.126l-0.106,0.235c-0.371,0.108-0.924,0.127-0.734-0.265
		c-0.125-0.109-0.344-0.26-0.62-0.036c-0.552,0.403-0.617-0.353-1.24-0.072c-0.021-0.202-0.169-0.339-0.502-0.159
		c-0.11,0.089-0.218,0.296-0.391,0.245l-0.045-0.055l-0.097,0.06c-0.396-0.118-0.111-0.67-0.718-0.61l-0.097-0.109
		c0.048-0.03,0.119-0.062,0.129-0.118c-0.431,0.042-0.435-0.229-0.611-0.381l-0.193,0.119c-0.117-0.097-0.15-0.226-0.038-0.4
		c-0.295-0.29-0.907-0.298-1.15-0.595c-0.483,0.061-0.661-0.567-1.24-0.072c-0.102-0.008-0.21,0.109-0.317,0.067
		c0.136-0.102,0.347-0.182,0.42-0.297c0-0.073-0.112-0.058-0.191-0.056l-0.1,0.066c-0.011-0.129-0.183,0.018-0.284,0.009
		c-0.518,0.233-0.905,0.704-1.357,0.963c0.186-0.538,1.074-0.924,1.136-1.419c-0.497,0.204-0.875,0.56-1.306,0.846l-0.299,0.355
		c0.089-0.246,0.419-0.574,0.73-0.827c0.262-0.394,0.88-0.742,0.811-1.175c-0.325-0.102-0.259-0.404-0.19-0.678
		c0.12-0.219,0.414-0.358,0.485-0.593c-0.541-0.153,0.352-0.47-0.119-0.681c-0.249-0.008-0.268-0.12-0.302-0.278
		c0.367-0.301,0.176-0.436,0.174-0.696c-0.355,0.198-0.424-0.083-0.672-0.091c0.105-0.388,1.024-0.969,0.742-1.244l-0.236-0.109
		c0.784-0.327-0.105-0.558,0.419-0.932c0.04-0.317-0.589-0.337-0.091-0.744c-0.189-0.276,0.707-0.493,0.343-0.758
		c0.61-0.405,0.64-0.937,1.135-1.412c0.162-0.079,0.241-0.178,0.281-0.298c0.3-0.123,0.042-0.141,0.327-0.336
		c0.397-0.416,1.073-0.666,1.467-1.136c1.015,0.107,1.861-0.792,2.802-0.551c0.373,0.073,0.465-0.247,0.679,0.148
		c0.101-0.021,0.216,0.032,0.32-0.073c-0.041,0.477,0.116,0.337,0.473,0.337c0.293-0.337,0.339,0.147,0.673-0.079L177.507,99.723z"
		/>
	<path fill="#F0BC44" d="M384.439,168.666c0.91,0.241,2.24,0,3.21-0.243c0.362,0.545-0.122,0.909,0.664,1.333
		c1.091,0.907,2.604-0.908,3.147,0.725c-0.785,0.971,0.486,1.818,0.729,2.726c2.361-0.242-0.061,2.239,2.24,2.239
		c0.483,0.668,0.362,1.817,1.393,2.059c-1.089,0.729-0.363,1.635,0,2.483h0.424c0.061,0.422-0.908,0.726-0.243,1.149
		c-1.634,0.606-1.15,2.725-3.39,2.241c0.182,1.513-0.908,3.148-1.816,4.54c-2.967-1.211-2.118,3.089-4.964,1.574
		c-0.849,0.545-1.999,0.97-2.968,0.483l-0.242-0.241c-0.242,1.029-1.392,1.149-2.238,1.332c-0.062-0.425-0.606-0.728-0.909-1.091
		c-0.243,0-0.546-0.06-0.666,0.183c-0.666-0.969-1.815,0-2.482-0.424c0.786-0.787-0.788-1.393-0.243-2.059
		c-0.303-0.545-0.848-0.424-1.392-0.424l0.242-0.242c-0.121-0.545-0.787-0.787-1.331-0.666c-0.909-1.453,2.3-1.453,0.181-2.482
		h-0.909c0.484-1.149-0.785-1.572-0.665-2.542h-0.666c0.303-1.029,1.453-1.453,0.666-2.725c-0.969-0.362,0.062-1.634-0.908-1.998
		c0.605-0.122,0.908-0.726,1.393-1.151c-0.423-0.181-0.181-0.604-0.242-0.907l0.423-0.425c0.061-0.544,0.909-1.754,0.909-2.723
		c1.938-1.998,4.42,0.363,4.783-2.968c1.028-0.423,1.271-1.755,2.482-0.908c0.604-1.331,1.815,0.728,2.058-0.908
		C383.652,167.214,384.439,167.818,384.439,168.666"/>
	<path fill="#FFFFFF" d="M437.275,87.509c0.571-0.71,1.123,0.703,1.61-0.329c1.087,1.338,2.696,2.814,3.121,4.59
		c0.467,0.187,1.464,0.354,1.094,1.232c0.09,0.271,0.41,0.237,0.569,0.247c-0.319,0.882-0.634,1.712-1.116,2.691
		c0.036,0.268,0.357,0.234,0.569,0.247c0.151,1.016-0.57,1.557-0.366,2.577l-0.37-0.022c0.358,1.083-1.069,1.899,0.193,2.982
		c1.436,0.828-0.273,2.796,1.361,3.848c-0.72,0.487-1.818,1.112-1.715,2.073c-0.941-0.215-0.691,0.913-1.087,1.314
		c-0.482,0.979,0.791,2.752-0.571,3.361c0.282,0.6-0.043,1.588,0.896,1.857c1.382-0.926,2.061,1.025,2.891,1.34
		c1.49-0.07,2.871-0.094,4.146-0.124c0.999-1.638,2.651,0.051,3.792-0.411c1.517-0.546,2.983,1.558,4.396,0.104
		c1.254-0.562,3.144,0.665,4.002-0.397c0.544,0.669,1.347-0.345,1.608-0.276c1.757,0.794,3.221-1.505,4.977-0.71
		c0.55-0.339,1.277,0.818,1.811-0.104l-0.013,0.211c2.786-0.47,5.649,1.345,7.787,2.851c-0.788,0.75,0.602,1.469,0.057,2.604
		c-0.889-0.211-0.521,0.713-1.064,0.944l-0.021,0.371c-1.173,0.088-0.002,0.901-0.664,1.34c-0.497,0.341-1.139,1.311-2.068,0.884
		c0.012-0.211,0.08-0.473-0.177-0.594c-0.901,2.651-4.371,1.225-5.722,3.424c-1.731-1.216-2.533,1.547-4.66,0.73
		c-1.784,0.583-4.224,1.446-6.372,0.999c0.272,0.759,0.21,0.914-0.307,1.573c-0.483-0.771-2.058-0.175-1.716-1.481l-0.369-0.022
		c-0.473,0.82,0.312,1.875-0.786,2.499c-0.637-0.885-1.107,0.784-1.744-0.104c-1.391,0.183-2.236,1.033-3.655,0.791
		c-0.317,0.883-1.465,0.549-2.037,1.258l0.199,0.223l-2.022,0.091c0.359,1.083,0.356,1.019-0.045,1.526
		c-0.871-0.53-0.679,0.702-0.841,0.746c-0.607,0.387-1.765,0.212-1.827,1.27c0.649,0.676,0.11,1.704-0.697,1.921
		c-0.757,0.221-0.549,0.169-1.215,0.66c0.871,2.28-1.692,0.801-1.899,2.486c-1.113,0.889-0.527,2.622-1.64,3.457
		c1.459,1.36-1.761,1.964-0.558,3.149c-0.079,1.322-1.104,3.383-0.271,4.547l-0.212-0.013c-0.028,1.377-1.132,2.957-0.236,3.964
		c-0.342,2.155,0.277,5.11-0.24,7.573c0.669,0.357-0.347,1.358,0.478,1.778c0.18,0.542-0.408,0.612-0.642,0.97
		c0.465,1.088,0.37,2.676,0.557,4.013c-1.28,0.984,0.588,2.58-0.448,3.95c-0.3,0.567-0.373,1.783-0.13,2.171
		c-0.222,1.947-0.065,4.663-0.425,7.134c0.975,1.438-0.819,3.028-0.048,4.348c0.076,1.385-0.608,3.209-1.748,4.521
		c0.373,0.87-0.635,0.863-1.235,1.146c-1.411-0.349-3.066-1.701-4.145-2.296c-0.015-1.539-0.092-2.924,0.063-4.611l-0.37-0.021
		c0.835-0.642,0.211-1.739-0.281-2.406c0.015-4.666,0.354-8.572-0.806-13.15c0.569-1.558,0.734-3.405,0.505-4.904l-0.397-0.448
		c1.013-1.85-0.597-4.227,0.366-6.131c-0.099-0.114-0.142-0.274-0.357-0.233c1.583-0.756-0.57-1.998,0.756-2.927
		c-0.027-0.373-0.69-0.838-0.14-1.175l-0.345-0.446l0.375-2.735c-0.801-0.791,0.139-1.425-0.663-2.216
		c0.477-0.873,0.033-1.429,0.291-2.21c-0.295-0.39,0.035-1.483-0.677-2.003c0.906-0.955-0.67-2.109-0.774-3.018
		c-0.916-1.539-1.688,0.75-2.948-0.388c-0.917,0.263,0.112,0.802-0.494,1.19c-1.866-0.748-1.607,1.009-3.505-0.112
		c-0.783,0.696-2.53,0.643-1.929,2.113c-1.367-0.189-2.168,0.772-3.61,0.95l-0.445,0.346l-0.149-0.168
		c-0.836,2.444-3.7-0.222-3.771,2.747c-1.751,0-3.521-0.582-4.827,0.877c-0.959,0.951-2.158-0.288-2.961-0.176
		c-0.252-0.228,0.256-0.728-0.313-0.973c-0.958,0.048-0.299,1.467-1.133,2.106c-0.473-0.082-1.203,1.467-2.032,0.25
		c-1.009,0.896-1.632-1.105-2.548,0.06c-0.537,0.074-1.148-0.334-1.4,0.342c-0.545-0.67-1.019,0.151-1.596,0.063
		c-0.007-0.794-0.579-0.987-1.134-1.447c-0.838,0.693-1.157-1.077-1.935-0.486c-0.665-0.411-1.369-1.939-2.53-1.159
		c-0.182-0.489-0.83-0.315-0.745-0.839l0.447-0.4c-0.776-1.212-3.685-0.483-2.438-2.69c-2.039-0.495,0.201-2.482-2.026-2.51
		c-0.092-1.119,0.255-2.479,0.797-3.56c-1.346-0.558,0.387-1.144-0.106-1.756c0.323-0.088,0.591-0.125,0.818-0.376
		c-0.722-0.362-0.36-1.083-0.699-1.633c1.539-0.014,0.179-1.209,1.479-1.663c-0.103-0.961,1.195-1.362,1.335-1.937
		c0.262,0.069,0.644-0.12,0.78,0.26c0.288-1.257,1.426-1.667,1.974-2.854c0.259,0.122,0.569,0.247,0.943,0.215
		c0.723-0.54,0.977-1.268,1.831-0.473c1.656-1.069,2.302-2.993,4.524-2.914c0.426-2.681,3.342-0.862,4.565-2.699
		c2.937,1.448,2.248-4.799,5.243-1.65c1.155-1.575,3.219,0.3,4.038-0.979c2.639,0.21,5.014-1.345,7.391-1.151
		c0.143-1.53,2.02-0.091,2.671-1.219c0.787,0.153,1.695,0.049,1.646-0.91c0.613-0.494,0.96,0.801,1.539,0.888
		c0.745-0.911,2.433-0.757,2.521-2.236c-0.938-1.171,1.718-2.125,0.781-3.296c-0.115-0.75,0.392-1.25,0.688-1.763
		c0.449-1.299-0.278-2.457,0.634-3.516c-0.496-1.462-1.254-2.993-0.161-4.413c-0.893-1.911,0.662-3.992,0.789-6.107
		c0.804-1.013,1.793-1.59,1.34-2.891c1.012-0.045,0.674-1.499,1.134-2.107l1.111-1.737c1.505,0.567-0.191-1.232,1.211-0.724
		l1.681-1.491c0.582,0.034,1.663-0.326,2.38,0.142C434.871,85.986,436.721,86.999,437.275,87.509"/>
	<path fill="#FFFFFF" d="M481.031,178.548c0.17-0.051,0.344-0.262,0.497-0.421c0.255-0.081-0.033-0.645,0.213-0.666
		c0.048-0.173,0.147-0.29,0.266-0.322c0.292-0.127,0.344-0.627,0.657-0.661c-0.025-0.194,0.113-0.17,0.064-0.377
		c0.078,0.088,0.066-0.058,0.121-0.098c0.158,0.066,0.133-0.26,0.274-0.155c-0.007-0.036,0.013-0.089-0.027-0.106
		c0.126-0.26,0.386-0.092,0.409-0.443c0.199-0.032,0.198-0.324,0.386-0.471c-0.08-0.255,0.247-0.137,0.225-0.376
		c0.17-0.029,0.105-0.322,0.215-0.425c-0.027-0.108,0.143-0.152,0.052-0.255c0.095-0.071,0.112-0.301,0.269-0.27
		c-0.026-0.23,0.047-0.354,0.038-0.571l0.114,0.122c0.061-0.188,0.25-0.298,0.102-0.527c0.111-0.097-0.014-0.319,0.115-0.388
		c-0.002-0.029,0.003-0.065-0.026-0.078l0.081-0.095c-0.009-0.072,0.01-0.161-0.032-0.215c0.248-0.189-0.049-0.426-0.029-0.676
		c0.042-0.061,0.134-0.068,0.124-0.177l-0.023,0.001c-0.025-0.041-0.089-0.058-0.068-0.124c0.172-0.132,0.003-0.307-0.042-0.433
		c0.119-0.128-0.074-0.235-0.017-0.356c-0.151,0.063,0.001-0.116-0.115-0.151c0.038-0.177-0.198-0.214-0.103-0.348
		c-0.083-0.095-0.154-0.255-0.166-0.422c-0.093,0.115-0.153-0.066-0.238-0.059l-0.035-0.297c-0.171,0.291-0.129-0.162-0.303-0.111
		c0.037-0.179-0.128-0.15-0.206-0.261c-0.111-0.024-0.226-0.14-0.344,0.01c-0.024-0.034-0.054-0.04-0.089-0.051
		c-0.055,0.186-0.177-0.117-0.254,0.08c-0.016-0.019,0.064-0.003,0.152,0.016c-0.04,0.103-0.145,0.025-0.168,0.162
		c-0.104,0.008-0.182-0.079-0.265-0.145c-0.068,0.034-0.161,0.013-0.214,0.104c-0.025-0.048-0.075-0.015-0.104-0.048
		c-0.062,0.034-0.062,0.063-0.104,0.117l-0.092-0.13l-0.042,0.062c-0.015-0.049-0.059-0.017-0.088-0.022l0.004,0.08
		c-0.082,0.088-0.167,0.117-0.27,0.111c0.072,0.351-0.3,0.099-0.327,0.378c-0.108,0.009-0.24,0.145-0.31,0.274
		c-0.101,0.022-0.059,0.193-0.118,0.287c-0.178,0.11-0.15,0.325-0.258,0.509c0.005,0.102,0.032,0.341-0.045,0.383l0.004,0.087
		c0.084,0.117-0.055,0.34,0.066,0.481c-0.112,0.172-0.03,0.354-0.045,0.522l0.021-0.031c0.068-0.014,0.106,0.085,0.155,0.125
		c-0.017,0.037-0.049,0.049-0.083,0.065c0.014,0.188,0.031,0.304,0.041,0.454c-0.194,0.346,0.095,0.671-0.164,1.027
		c-0.013-0.014-0.024-0.035-0.048-0.025l0.004,0.08c0.083,0.196-0.156,0.225-0.195,0.373c-0.034,0.259-0.03,0.593-0.285,0.789
		c-0.016,0.046,0.021,0.072,0.045,0.106c0,0.153-0.136,0.15-0.201,0.235c0.01,0.232-0.206,0.287-0.213,0.506"/>
	<path fill="#FFFFFF" d="M484.766,170.507c0.176,0.137,0.435,0.15,0.624,0.035c0.327,0.173,0.785,0.17,0.998,0.478
		c0.185-0.017,0.136,0.291,0.344,0.133c0.164,0.361,0.707,0.209,0.939,0.419c0.045,0.554,0.743,0.366,0.696,0.943
		c0.085,0.117,0.219,0.195,0.388,0.176l0.032,0.525c0.316-0.209,0.171,0.221,0.447,0.193c-0.134,0.205-0.006,0.382,0.029,0.582
		c0.297,0.693-0.074,1.339,0.395,1.971c-0.246,0.58,0.109,1.349-0.214,1.953c0.299,0.383-0.436,0.682-0.062,1.112
		c-0.332,1.041-0.484,2.119-0.985,3.166c-0.11,0.347-0.296,0.661-0.331,1.042c-0.24,0.467-0.555,0.886-0.719,1.387
		c-0.398,0.287-0.336,0.545-0.672,0.81c-0.203,0.385-0.489,0.835-0.972,1.007c-0.195-0.068-0.009-0.383-0.32-0.287l-0.064,0.054
		c0.044,0.059,0.148,0.078,0.114,0.16c-0.172,0.062-0.162-0.106-0.221-0.167c-0.329-0.13-0.85,0.194-1.134-0.218
		c-1.182-0.178-1.704-1.224-2.115-2.08c-0.462-0.491-0.257-1.158-0.964-1.38c-0.02-0.186-0.193-0.336-0.198-0.534
		c0.821,0.343,1.202,1.183,2.232,1.069c0.31-0.35,1.024-0.027,1.24-0.608c-0.021-0.186,0.059-0.492,0.251-0.411
		c0.021-0.111,0.226-0.199,0.08-0.32c-0.049,0.055-0.157,0.076-0.131,0.148c0.133-0.757,0.183-1.645,0.139-2.521
		c-0.191-0.11-0.18-0.321-0.037-0.426c-0.579-0.301,0.298-0.69-0.344-0.98c0.331-0.448-0.532-0.58-0.279-1.019
		c-0.728-0.11,0.28-0.647-0.374-0.698c-0.256-0.058-0.147-0.631-0.543-0.411c-0.018-0.213-0.266-0.156-0.384-0.233l-0.311,0.364
		c0.041-0.45-0.571-0.159-0.665-0.418c-0.186,0.06-0.138,0.304-0.313,0.406c0.237,0.141,0.552-0.012,0.559,0.412
		c-0.055,0.421-0.06,1.084-0.248,1.455c-0.145,0.092-0.258,0.241-0.145,0.374c-0.414,0.613-0.772,1.272-1.248,1.881
		c0.028,0.313-0.296,0.365-0.429,0.556c-0.243,0.553-0.614,0.899-0.991,1.372c0.11,0.219-0.212,0.229-0.311,0.364
		c-0.481-0.152-0.227,0.779-0.836,0.745l-0.021,0.367c-1.491,2.388-3.481,4.666-5.19,6.861c1.356-2.158,3.559-4.692,4.979-7.184
		c0.091,0.033,0.156-0.048,0.235-0.101c-0.242-0.324,0.316-0.478,0.33-0.717l0.009-0.169c-0.222-0.125-0.27,0.184-0.425,0.245
		l0.057,0.06c-0.435,0.4-0.652,1.036-0.997,1.47c-1.023,1.667-2.214,3.281-3.457,4.782c-0.614,1.153-1.758,1.668-2.562,2.67
		l-0.286,0.197l0.016-0.27c1.169-1.263,1.973-2.8,3.025-4.169l-0.228-0.014l0.379-0.5c0.005-0.1-0.056,0.166,0.034,0.213
		c0.142-0.091,0.258-0.24,0.142-0.374l0.059,0.06c0.051-0.082,0.22-0.115,0.183-0.259l-0.166-0.051
		c0.187-0.315,0.361-0.729,0.683-1.022l0.004-0.057l0.161,0.123c0.102-0.179,0.372-0.361,0.37-0.615
		c-0.039-0.115-0.154,0.006-0.23,0.03l0.061,0.003l-0.012,0.211l-0.062-0.004c-0.035-0.17,0.113-0.39,0.215-0.567l0.095,0.218
		c0.086-0.15,0.416-0.331,0.151-0.514c0.356-0.377,0.425-1.063,0.98-1.16c-0.137-0.022-0.233-0.197-0.107-0.275l0.168,0.01
		c0.168-0.542,0.461-0.879,0.703-1.39c0.519-0.535,0.652-1.305,1.198-1.784c-0.006-0.17,0.019-0.339,0.191-0.412
		c0.174-0.683,0.595-1.112,0.948-1.699c0.254-0.438,0.386-0.871,0.634-1.237c-0.351-0.288-0.367,0.276-0.74,0.128
		c-0.303,0.225-0.596,0.562-1.003,0.468c-0.353,0.305-0.747-0.026-1.158,0.205c0.128-0.375-0.51-0.156-0.662-0.461
		c-0.546-0.06-0.94-0.391-1.384-0.655c-0.157-0.205-0.26-0.565-0.185-0.815c0.253-0.41,0.046-0.83,0.401-1.192
		c0.287-0.196,0.175-0.655,0.611-0.546c0.193-0.455,0.758,0.113,0.881-0.432c0.223-0.186,0.612,0.232,0.576-0.223
		c0.254-0.17,0.769-0.084,0.775-0.494c0.247-0.043,0.616,0.189,0.7-0.229c0.243,0.027,0.226-0.2,0.468-0.172
		c0.082-0.109,0.366,0.02,0.469-0.187l0.059,0.046c0.246-0.283,0.943-0.202,0.998-0.624c0.408,0.334,0.766-0.338,1.212-0.102
		c0.065-0.081,0.222-0.144,0.242-0.24c0.217,0.223,0.634-0.121,0.851,0.088c0.226-0.199,0.577-0.223,0.861-0.107
		c0.12-0.247,0.349,0.047,0.399-0.034C484.401,170.741,484.6,170.47,484.766,170.507"/>
	<path fill="#FFFFFF" d="M472.7,187.882c0.089-0.235,0.21-0.483,0.431-0.612L472.7,187.882z"/>
	<path fill="#FFFFFF" d="M471.957,188.9c0.033-0.055,0.179-0.485,0.434-0.655L471.957,188.9z"/>
	<path fill="#FFFFFF" d="M478.414,140.913c0.422-0.348,0.316,0.494,0.843,0.21c0.526,0.684,1.559,0.758,2.106,1.369
		c0.295,0.231,0.054,1.053,0.737,1.053l-0.211,0.631c0.138,0.18,0.421,0.054,0.526,0.316c-0.315,0.179,0.138,0.316,0.105,0.527
		l0.422,0.315c-0.39,0.158-0.126,0.548-0.211,0.843l0.421,0.315c-0.526,0.211,0.084,0.475,0.105,0.737
		c-0.441,0.053-0.315,0.526-0.105,0.737c0.506,0.21,0.19,0.632,0.105,0.948l-0.21,0.21c0.21,0.159-0.391,0.475,0.104,0.632
		c-0.104,0.233-0.284,0.443-0.21,0.738c0.053,0.053,0.105,0.127,0.21,0.105l-0.421,0.211c0.137,0.157,0.137,0.473,0,0.632
		c-1.021,0-0.58,1.337-1.264,1.579l-0.105-0.104c-0.315,0.525-1,0.21-1.264,0.843c-0.264-0.085-0.601-0.611-0.843-0.106
		c-0.705,0-1.391-0.104-2.106-0.315c-0.896-0.685-1.548-1.612-2.527-1.896c-0.158-0.77-0.811-0.579-1.158-1.159
		c-0.074-0.368-0.39-0.663-0.422-1.052c-0.442-0.159-0.126-0.665-0.526-0.843c0.632-0.421-0.315-1.052,0-1.58
		c-0.863-0.294,0.137-1.242-0.739-1.579c0.317-0.349,0.687-0.528,0.528-0.949c0.316-0.189-0.126-0.315-0.104-0.526
		c0.031-0.399,0.505-0.61,0.421-1.053c0.315,0.02,0.104-0.316,0.315-0.422c-0.284-0.242,0.085-0.504,0.105-0.737
		c0.189-0.084,0.295,0.106,0.422,0.211c0.421-0.505,1.189-0.242,1.58-0.843c0.263,0,0.474-0.105,0.631-0.316v-0.106
		c0.737,0.39,1.264-0.293,2.002-0.209L478.414,140.913z"/>
	<path fill="#FFFFFF" d="M481.89,159.553c-0.737,0.97-2.265,0.97-2.843,2.106c-1.528,0.422-2.317,3.024-4.319,1.896
		c-0.263-0.474-1.211-0.685-0.631-1.264c-0.264-0.633,0.474-0.874,0.526-1.368c1.053-0.107,1.58-1.665,2.527-2.003
		c4.161-4.507,8.636-9.426,12.006-14.533c0.453-0.19,0.4-0.948,0.843-1.053c0.453-0.316-0.021-0.632,0.422-0.948
		c0.053-0.316-0.126-0.789,0.315-0.843c0.188-0.085,0.084-0.294,0.106-0.42l-0.106-0.106l0.315-0.421
		c-0.39-0.453,0.771-0.663,0.211-1.159c0-0.558,0.896-0.79,0.315-1.368l-0.526-0.527c0.19-0.105,0.085-0.348,0.106-0.527
		l-0.106-0.104c0.58-0.37-0.263-0.948,0.422-1.264c-0.315-0.211,0.158-0.368,0-0.632c0.843-0.054,0.927-1.244,1.896-0.948
		c0.263-0.663,0.927-0.084,1.369-0.211c0.137,0.022,0.349-0.084,0.422,0.107l0.104-0.107c0.054,0.127,0.211,0.107,0.316,0.107
		l0.106-0.107c0.104,0.79,1.084,0.159,1.157,0.949c0.632-0.842,0.506,0.738,1.264,0.21c0.137,0.917,1.422,0.316,1.265,1.263
		c0.399,0.285,0.663,0.79,0.842,1.264c-0.337,0.653,0.242,1.475-0.105,2.001l0.316,0.211c-0.18,0.105-0.074,0.336-0.105,0.526
		c0.105,0.125,0.295,0.231,0.211,0.421c-0.074,0.179-0.369,0.073-0.316,0.316c-0.021,0.179,0.085,0.685-0.105,0.947
		c-0.315,0.211,0.158,0.369,0,0.632c-0.632,0.896-1.231,1.179-2.001,1.791c-0.315-0.348-0.632,0.23-0.947-0.105
		c-0.39,0.284-0.685-0.137-1.054,0.211c-0.158-0.422-0.42-0.032-0.632,0c0.032,0.105-0.052,0.157-0.105,0.21
		c-0.283-0.505-0.758,0.074-1.053-0.105l-1.264,0.527c-0.285,0.705-1.285,0.757-1.791,1.158c-1.053,0.864-1.685,1.632-2.633,2.528
		v0.21c-0.157,0.369-0.843,0.421-0.843,0.948c-0.652,0.474-0.947,1.18-1.685,1.475c0.263,0.738-1,0.79-0.947,1.579
		c-1.265,1.444-2.761,2.791-4.003,4.529c0.159,0.231,0.316-0.211,0.526-0.211c0.58-0.104,1.19-0.4,1.58-0.738"/>
	<path fill="#FFFFFF" d="M488.704,162.152c-0.104-0.643-0.564,0.119-0.941-0.052c-0.053-0.104-0.12-0.187-0.11-0.315
		c-0.145,0.129-0.429-0.052-0.521,0.212c-0.642,0.078-1.393,0.248-1.992,0.104c-0.224,0.156-0.487-0.078-0.684,0
		c-0.554-0.16-1.092-0.555-1.785-0.471c-0.171-0.058-0.353,0.182-0.471-0.058c0.01-0.325,0.326-0.574,0.521-0.786
		c0.315,0.041,0.514-0.285,0.684-0.471c0.316,0.066,0.436-0.367,0.787-0.212c0.145-0.352,0.435,0.03,0.631-0.155
		c0.404,0.563,0.6-0.368,0.994-0.315c0.03,0.025,0.067,0.051,0.057,0.103c0.14-0.088,0.42-0.036,0.523-0.052
		c0.103,0.016,0.237-0.036,0.314,0.052c0.368-0.155,0.574,0.119,0.839-0.258c0.29-0.067,0.471,0.119,0.734,0.103
		c0.59,0.078,0.776-0.538,1.314-0.579c0.248,0.094,0.444-0.248,0.734-0.207c0.053-0.025,0.13,0.052,0.104,0.103
		c0.3-0.103,0.403-0.377,0.734-0.419c0.025-0.077,0.104-0.195,0-0.264c0.063-0.087,0.155-0.113,0.264-0.103
		c0.719,0.273,0.419-0.684,0.994-0.632v-0.104c0.222-0.182,0.16-0.615,0.579-0.522c-0.067-0.212,0.119-0.383,0.052-0.528
		c0.053-0.062,0.223-0.062,0.155-0.207c0.305-0.33,0.278-0.88,0.419-1.313c-0.01-0.171-0.181-0.146-0.207-0.316
		c0.119-0.114,0.182-0.206,0.265-0.311l-0.16-0.16c0-0.052-0.012-0.13,0.051-0.154c-0.051-0.528-0.522-0.87-0.522-1.419
		c-0.237-0.264,0.077-0.946-0.471-0.896c-0.04-0.325-0.265,0.068-0.367-0.206l0.051-0.052c-0.145-0.632-0.946-0.461-1.204-1.051
		c-0.307,0.249-0.539-0.275-0.793,0.104c-0.311-0.171-0.626,0.119-0.942-0.052c-0.3,0.026-0.211,0.554-0.521,0.367
		c-0.057,0.275-0.383,0.093-0.477,0.368c-0.232-0.353-0.496,0.093-0.786-0.104c-0.026,0.025-0.067,0.052-0.053,0.104
		c-0.129,0.093-0.366,0.274-0.471,0.103c-0.237,0.305-0.289-0.259-0.578,0c-0.172,0.46-0.523-0.01-0.788,0.213
		c-0.656,0.041-0.025-0.436-0.419-0.684c0.302-0.735-0.248-1.195-0.631-1.625c0.025-0.305-0.471-0.237-0.471-0.58
		c-0.564-0.144-1.05-0.497-1.521-0.891c-0.957-0.135-2.101-0.315-2.624,0.683c0.036,0.312-0.093,0.694,0.104,0.943
		c-0.067,0.161,0.043,0.435,0,0.58c0,0.13,0.213,0.155,0.161,0.315c-0.058,0.353,0.337,0.864,0,1.207
		c-0.118-0.094-0.409-0.016-0.367-0.264c-0.279-0.012-0.46,0.222-0.735,0.211c-0.135,0.13-0.383-0.051-0.476,0.155
		c-0.353,0.274-0.683-0.206-0.942,0.104c-0.435-0.171-0.641,0.367-1.05,0.108c-0.053,0.223-0.315-0.017-0.368,0.207l0.053,0.052
		c0.015,0.059-0.026,0.083-0.053,0.108c-0.248-0.084-0.564,0.156-0.838,0c-0.094,0.223-0.409,0.207-0.58,0.207l-0.051-0.051
		c-0.275,0.17-0.563,0.355-0.839,0.522c0.01,0.314-0.435,0.201-0.367,0.527c-0.213,0.066-0.368,0.248-0.632,0.206
		c0.042,0.214-0.145,0.316-0.207,0.478c-0.595,0.024-0.118,0.734-0.631,0.838c0.264,0.181-0.052,0.471,0,0.631
		c-0.249,0.207,0.036,0.456-0.052,0.734c0.341-0.082,0.206,0.311,0.315,0.471c0.367,0.207,0.533,0.771,0.891,0.999
		c0.077,0.078,0.248,0.208,0.103,0.311c0.146,0.057,0.239,0.212,0.42,0.161c0.066,0.155,0.066,0.195,0.212,0.315
		c0.238,0.17,0.377,0.351,0.522,0.573c0.084-0.01,0.16,0.119,0.213,0c0.118,0.043,0.248,0.224,0.367,0.104
		c0.247,0.145,0.342,0.356,0.631,0.424c0.113-0.305,0.3,0.026,0.472-0.16l0.263,0.315c0.197-0.274,0.456,0.094,0.679-0.103
		c0.223,0.429,0.868,0.258,1.211,0.366v-0.051c0.088-0.041,0.139-0.146,0.259-0.109c0.553,0.171,0.331,0.751,0.527,1.103
		c-0.248,0.248-0.632,0.171-0.947,0.263c-0.182-0.314-0.497-0.273-0.786-0.314c-0.409,0.314-0.761-0.274-1.205,0
		c-0.274,0.016-0.58-0.036-0.839,0c-0.383-0.17-0.435,0.435-0.844,0.368c-0.063,0.117-0.352,0.247-0.315,0.418
		c-0.472,0.394-0.196,0.921-0.155,1.419c-0.052,0.066-0.119,0.211-0.052,0.263c-0.171,0.315,0.067,0.591,0.207,0.84
		c0.279,0.212,0.424,0.407,0.58,0.733c0.248-0.094,0.238,0.146,0.418,0.213c0.027,0.31,0.59,0.223,0.632,0.625
		c0.146-0.01,0.233,0.249,0.368,0.109c0.154,0.207,0.513,0.207,0.574,0.419c0.159,0.104,0.315,0.445,0.578,0.419
		c0.079,0.093-0.55,0.323-0.627,0.417c0.026,0.341-0.264,0.626-0.155,0.942l-0.528,1.153c0.068,0.025,0.052,0.108,0.052,0.161
		c-0.002,0.326-0.104,0.547-0.262,0.703c-0.09,0.63-0.373,1.494-1.123,2.356c-0.05,0.18-0.211,0.339-0.291,0.505
		c-0.265,0.844-0.932,1.521-1.206,2.363c-0.253,0.25-0.357,0.565-0.528,0.84c-0.181,0.383-0.512,0.761-0.683,1.102
		c-0.59,0.803-1.19,1.615-1.785,2.412c-0.248,0.315-0.549,0.604-0.729,0.947c-1.853,1.744-3.561,3.486-5.671,4.614
		c-1.232,0.383-1.929,0.966-3.254,0.635c0.077,0.238,0.353,0.187,0.522,0.314c1.009,0.095,1.785-0.351,2.733-0.418
		c0.17-0.078,0.273,0.156,0.418,0l0.052,0.052c0.657-0.238,1.113-0.512,1.838-0.579c1.076-0.706,2.204-1.403,3.146-2.309
		c0.461-0.179,0.724-0.812,1.154-1.05c0.59-0.761,1.34-1.506,1.889-2.309c0.605-0.785,1.34-1.375,1.733-2.256
		c0.605-1.061,1.537-1.889,2.049-2.938c0.104-0.275,0.43-0.456,0.42-0.787c0.326-0.155,0.429-0.486,0.522-0.787
		c0.297-0.27,0.442-0.708,0.726-1.038c0-0.002,0-0.004,0.002-0.006c0.037-0.104,0.074-0.211,0.111-0.318
		c0.037-0.111,0.098-0.171,0.139-0.285c0.042-0.116,0.043-0.2,0.057-0.322c0.007-0.071-0.003-0.116,0.023-0.188
		c0.024-0.063,0.082-0.102,0.113-0.152c0.009-0.015,0.003-0.067,0.01-0.087c0.014-0.039,0.047-0.132,0.08-0.172
		c0.049-0.059,0.143-0.049,0.191-0.103c0.02-0.021-0.004-0.049,0.011-0.069c0.03-0.042,0.055-0.094,0.081-0.145
		c0.4-0.982,0.78-2.019,1.607-2.78c0.196-0.052,0.378-0.247,0.521-0.315c0.301,0.326,0.668-0.145,0.999-0.212
		c0.481,0.031,0.958-0.311,1.521-0.258c0.156-0.135,0.353-0.188,0.575-0.162c0.315-0.31,0.802-0.232,1.153-0.47
		c0.171-0.094,0.29-0.394,0.527-0.42c0.657-0.956,1.755-1.732,2.779-2.256C488.56,162.783,488.807,162.494,488.704,162.152"/>
	<path fill="#FFFFFF" d="M508.699,185.34c-0.353-0.166-0.632-0.497-0.999-0.627c-1.496-1.101-3.054-2.192-4.461-3.408
		c-0.403,0.062-0.574-0.419-0.94-0.477c-0.922-0.823-2.05-1.387-2.992-2.257c-0.248-0.195-0.393-0.521-0.735-0.574
		c-0.956-0.802-2.059-1.512-2.886-2.416c-0.326-0.301-0.591-0.668-1-0.891c-0.325-0.631-1.164-0.997-1.47-1.682
		c-0.104-0.223-0.455-0.43-0.47-0.734c-0.82-0.79-1.482-1.71-1.927-2.647c-0.035-0.032-0.056-0.053-0.069-0.108
		c-0.003-0.009,0.037-0.018,0.03-0.039c-0.013-0.056-0.019-0.026-0.075-0.06c-0.032-0.02-0.072-0.027-0.103-0.051
		c0.018-0.084-0.038-0.092-0.082-0.146c-0.035-0.044-0.036-0.08-0.065-0.146c-0.024-0.054-0.092-0.106-0.11-0.165
		c-0.026-0.085,0.037-0.152,0.05-0.229c-0.091-0.062-0.17-0.064-0.243-0.148c-0.023-0.028-0.057-0.064-0.077-0.093
		c-0.021-0.031-0.04-0.066-0.06-0.102c-0.378-0.313-0.56-0.963-0.942-1.263v-0.103c-0.457-0.42-0.865-0.431-1.362-0.782
		c-0.367,0.01-0.646-0.461-0.999-0.213c0.156,0.58,0.17,1.273,0.632,1.681c0.284,0.418,0.469,0.811,0.676,1.306
		c0.028,0.038,0.055,0.074,0.09,0.109c0.108,0.112,0.158,0.248,0.257,0.372c0.094,0.119,0.199,0.231,0.289,0.356
		c0.123,0.17,0.205,0.4,0.325,0.593c0.014,0.015,0.027,0.028,0.04,0.044c0.946,1.614,2.126,2.99,3.409,4.461v0.159l2.939,2.883
		h0.104c1.434,1.418,3.332,2.375,4.937,3.728c0.693,0.144,1.189,0.732,1.838,0.998c0.838,0.59,1.635,1.101,2.463,1.623
		c0.408,0.187,0.776,0.579,1.153,0.735c0.59,0.254,1.104,0.735,1.63,1.05c0.258,0.103,0.498,0.445,0.787,0.315
		c0.036,0.094,0.145,0.042,0.207,0.053c0.813,0.527,1.774,0.683,2.675,0.998C510.261,186.84,509.605,185.945,508.699,185.34"/>
	<path fill="#FFFFFF" d="M471.265,159.424l-0.115-0.197c-0.081-0.443-0.016-0.804,0.05-1.215c-0.214-1.083-0.395-2.165-0.525-3.279
		c-0.492-3.116-1.82-5.904-3.132-8.676c-0.428-0.689-0.837-1.427-1.296-2.034c-0.558-0.656-1.083-1.313-1.804-1.805
		c-0.854-0.311-1.559-1.082-2.543-0.983c-0.114-0.229-0.409-0.065-0.491-0.311c-0.492,0-0.936,0.015-1.313-0.182
		c-0.197-0.147-0.476-0.131-0.64-0.295c-0.147-0.033-0.263-0.196-0.411-0.098c-0.147-0.296-0.409-0.377-0.688-0.46
		c0-0.426-0.574-0.361-0.673-0.77c0.049-0.458-0.541-0.328-0.541-0.771c-0.197-0.065-0.329-0.377-0.559-0.295
		c-0.098-0.066-0.163-0.18-0.196-0.296c-0.196-0.261-0.509-0.541-0.869-0.442c-0.131-0.132-0.246-0.264-0.312-0.41
		c-0.296,0.114-0.541-0.082-0.837-0.065c-0.786-0.329-1.574,0-2.395,0.065c-0.902,1.082-2.328,1.771-2.591,3.214
		c-0.033,0.377-0.591,0.59-0.378,1.033c-0.41,0.361,0.164,0.901-0.277,1.246c0.016,0.542-0.018,1.083-0.083,1.592
		c0.065,0.311-0.033,0.804,0.083,1.082c-0.083,0.508,0.213,0.854,0.146,1.361c0.313,0.311,0.131,0.819,0.393,1.148
		c0.493,0.345,0.1,1.1,0.625,1.46c0.622,0.575,0.54,1.444,1.049,2.065c0.705,0.69,0.837,1.674,1.214,2.527
		c0.163,0.327,0.032,0.787,0.246,1.099c-0.05,0.688,0.442,1.279,0.263,2.033c0.377,2.1,0.359,3.739,0.476,5.905l0.082,0.148
		c0.032,1.54,0.099,3.164-0.065,4.673c0.213,1.313-0.329,2.214-0.411,3.411c-0.605,1.346-0.295,3.116,0.411,4.281
		c0.836,0.935,0.967,2.229,1.771,3.198c0.132,0.787,1.001,1.131,1.214,1.887l0.804,0.328c0.328-0.133,0.541,0.229,0.854,0.262
		c0.132-0.065,0.213-0.278,0.377-0.262c0.854,0.426,0.771-0.821,1.214-1.181c0.263-0.065,0.475,0.113,0.688,0.262
		c0.279,0.082,0.296-0.262,0.411-0.41c0.131-0.919,0.214-1.64,0.377-2.542c0.427-0.361,0.017-0.936,0.362-1.329
		c-0.166-0.114,0.048-0.213,0.048-0.327c0-0.772,0.229-1.445,0.245-2.215c0.296-0.328-0.016-0.935,0.378-1.213l0.246,0.179
		c0-0.196-0.032-0.46,0.148-0.557c0.409,0,0.754,0.378,1.147,0.557c0.591,0.428,1.525,0.182,2.034,0.887
		c0.082,0.655,0.394,1.231,0.524,1.869c0.623,1.066,0.655,2.428,1.459,3.396c0.164,0.196,0.346,0.574,0.674,0.606
		c0.229,0.017,0.262-0.245,0.475-0.295c0.443-0.541,1.214-0.787,1.591-1.377c-0.064-0.805,0.361-1.559,0.082-2.313
		c0.131-1.214,0.705-2.361,0.657-3.657c0.426-1.59-0.115-3.084,0.294-4.658c-0.147-0.672,0.05-1.296-0.065-1.95
		c-0.065-0.165,0.181-0.279,0-0.411C471.298,162.425,471.184,160.981,471.265,159.424 M466.082,163.89
		c-0.016,0.062-0.063,0.092-0.107,0.138c-0.247-0.154-0.322-0.461-0.478-0.692c-0.185,0.124,0.047,0.278,0.094,0.415
		c0.075,0.293,0.152,0.692-0.109,0.938c-0.215,0.292-0.676,0.093-0.829,0.399c0.062,0.246,0.062,0.445,0.015,0.707
		c-0.614,0.247-0.414,1.061-0.491,1.584c0.077,0.354,0.138,0.814-0.17,1.029c-0.43,0.186-0.983,0.247-1.43,0.462
		c-0.953-0.276-0.368-1.521-0.538-2.244c0.231-0.523-0.076-1.107,0.062-1.63c-0.062-0.814-0.076-1.737,0.077-2.659l0.309-0.292
		c0.307,0.076,0.568-0.031,0.891-0.123c0.507-0.814,1.568-0.923,1.906-1.875c0-0.339,0.422-0.867,0.562-1.189
		c0.169-0.522-0.692-0.554-0.386-1.077c-0.092-0.184-0.354-0.091-0.506-0.198c-0.615-0.309-0.615-1.017-1.015-1.491
		c-0.446-0.262-1.576,0.082-2.007-0.226c0.017-0.216-0.262-0.369-0.354-0.584c-0.077-0.522-0.2-1.123-0.231-1.706
		c-0.138-0.509-0.368-0.969-0.352-1.522c-0.247-0.153-0.094-0.415-0.14-0.615c-0.169-0.307-0.092-0.737-0.384-0.999
		c0.185-0.354-0.139-0.708,0.046-1.076c0.169-0.631-0.322-1.184-0.106-1.83c0.076-0.307-0.262-0.476-0.14-0.769
		c-0.185-0.368,0.031-0.737-0.076-1.106c0.122-0.215,0.476-0.092,0.584-0.354c0.445,0.063,0.891-0.138,1.26,0
		c0.139-0.046,0.277-0.138,0.415-0.061c0.17,0.168,0.431,0.124,0.615,0.247c1.706,1.644,2.306,3.78,3.044,5.84
		c0.861,3.243,0.969,6.502,0.339,9.853C466.65,162.121,466.082,162.967,466.082,163.89"/>
	<path fill="#FFFFFF" d="M471.079,170.386c-0.276,1.431-0.515,3.305-0.933,4.639c0.04,0.059,0.106,0.121,0.062,0.213l-0.114,0.081
		l0.079,0.114c-0.549,1.516-0.873,3.321-1.256,4.785c0.025,0.419-0.395,0.494-0.456,0.836c0.157,0.108,0.027,0.288,0.033,0.42
		c-0.337,0.171-0.125,0.975-0.448,1.351c-0.272,0.516-0.646,1.215-1.115,1.745c-0.206,0.699-0.45,0.968-0.511,1.743
		c-0.102,0.012-0.135-0.075-0.174-0.133c-0.602,0.658-1.052,1.627-1.726,2.351c-0.921,1.055-2.241,1.694-3.58,1.506
		c-0.5-0.021-0.828-0.281-1.226-0.434c-0.62,0.102-1.377-0.419-2.099-0.578c-0.315-0.339-0.493-0.725-0.578-1.232
		c-0.165-0.464-0.574-0.538-1.002-0.584c-0.426-1.206-2.004-1.66-1.652-3.059c0.234-0.039,0.281,0.413,0.416,0.487
		c0.682,1.09,1.938,1.469,3.124,1.579c0.177,0.285,0.436-0.053,0.68,0.123c1.151-0.307,2.44-0.892,3.047-1.901
		c1.001-0.566,0.88-1.868,1.656-2.565c0.323-0.921,0.518-2.003,0.533-2.969c0.371-0.247-0.112-0.636,0.258-0.883
		c0.125-1.076,0.133-2.224,0.376-3.197c0.179-1.379-0.104-2.882,0.086-4.381"/>
	<path fill="#FFFFFF" d="M219.043,95.891h2.654v0.632h-2.654V95.891z M223.987,94.154v-0.6h4.803v-1.802h-12.006v9.511h2.259v-0.474
		h8.167c-0.095,1.248-0.222,1.833-0.315,2.102c-0.19,0.616-0.443,0.805-0.837,0.805c-0.222,0-1.09-0.095-1.295-0.142
		c0.536-0.222,0.679-0.284,1.342-0.458c-0.174-0.616-0.632-1.738-0.948-2.211l-1.769,0.537c0.395,0.79,0.568,1.248,0.868,2.354
		c0.063-0.016,0.396-0.174,0.458-0.206c0.253,0.584,0.537,1.517,0.617,2.212c0.189,0.016,0.395,0.047,0.647,0.047
		c0.931,0,1.99-0.236,2.527-1.153c0.995-1.754,1.012-4.708,1.027-5.672h-5.546v-0.742h3.697v-1.738h-3.697v-0.632h3.697v-1.737
		H223.987z M219.043,98.261h2.654v0.742h-2.654V98.261z M219.043,93.554h2.654v0.6h-2.654V93.554z M218.553,101.926v-0.016
		l-2.069-0.521c-0.189,1.01-0.869,2.59-1.596,3.585c0.711,0.189,1.454,0.427,2.212,0.837c0.743-1.169,1.28-3.096,1.39-3.586
		c0.206,1.154,0.3,1.659,0.363,2.875c0.917-0.221,2.118-0.348,2.307-0.364c-0.127-1.058-0.348-2.085-0.679-3.159L218.553,101.926z
		 M220.986,101.721c0.363,0.869,0.521,1.532,0.727,2.827c0.758-0.236,1.169-0.331,2.101-0.457c-0.189-0.964-0.647-2.26-0.947-2.828
		L220.986,101.721z"/>
	<path fill="#FFFFFF" d="M236.836,94.849c-0.017,1.975-0.49,3.776-1.201,5.435c-0.19,0.427-0.49,1.122-0.87,1.122
		c-0.331,0-1.027-0.884-1.027-2.102C233.739,97.708,235.24,95.465,236.836,94.849 M240.343,105.401
		c1.675-0.727,3.017-1.438,4.171-3.27c0.711-1.169,1.122-2.386,1.122-3.902c0-1.501-0.379-2.891-1.659-4.202
		c-1.059-1.075-2.591-1.928-4.802-1.928c-4.661,0-7.756,3.966-7.756,7.363c0,2.922,2.29,5.007,3.522,5.007
		c1.248,0,2.354-2.1,2.812-3.064c1.027-2.211,1.533-4.613,1.738-7.03c2.986,0.236,3.649,2.591,3.649,3.87
		c0,1.644-1.011,4.297-4.439,4.945C239.474,104.011,239.822,104.485,240.343,105.401"/>
	<rect x="247.299" y="97.407" fill="#FFFFFF" width="14.266" height="2.654"/>
	<path fill="#FFFFFF" d="M270.779,99.272h-1.089v-1.154h1.089V99.272z M274.002,97.045c0.616,0.647,0.98,0.916,2.386,1.722
		c0.221-0.474,0.9-1.327,1.468-1.911c-0.347-0.143-0.884-0.364-1.974-1.09c0.332-0.316,0.458-0.442,1.09-1.232
		c0.3,0,0.489-0.032,0.489-0.189c0-0.111-0.079-0.174-0.157-0.237l-1.676-1.169c-0.505,0.774-1.058,1.406-1.279,1.626
		c-0.284-0.252-0.363-0.347-0.458-0.458c0.348-0.379,0.569-0.632,1.011-1.232c0.142,0.016,0.206,0.016,0.252,0.016
		c0.096,0,0.348,0,0.348-0.236c0-0.127-0.079-0.174-0.157-0.222l-1.628-1.074c-0.331,0.537-0.711,0.963-0.947,1.232
		c-0.285-0.363-0.522-0.664-0.917-1.264l-1.801,0.727c0.332,0.822,1.485,2.607,2.701,3.934h-4.581
		c0.869-0.979,1.643-2.054,2.101-3.286l-0.521-0.617h-5.75v1.896h0.679l-1.137,1.074c0.458,0.348,0.648,0.537,1.39,1.249
		c-1.232,0.963-2.054,1.216-2.448,1.327c0.584,0.395,1.2,1.042,1.595,1.595c0.648-0.315,1.407-0.806,2.639-1.832v0.726h0.821v1.154
		h-3.049v2.069h2.749c-0.411,1.122-1.563,2.527-3.918,2.764c0.49,0.569,0.933,1.201,1.295,1.849
		c1.406-0.142,4.187-1.485,4.819-4.613h1.342v2.701c0,0.537,0.111,0.933,0.364,1.186c0.126,0.126,0.584,0.505,1.469,0.505h2.386
		c1.737,0,2.053-0.648,2.669-2.591c-0.884-0.395-1.168-0.569-2.021-1.106c-0.079,0.442-0.3,1.169-0.443,1.39
		c-0.158,0.221-0.506,0.269-0.632,0.269h-0.932c-0.6,0-0.632-0.08-0.632-0.632v-1.722h2.987v-2.069h-2.987v-1.154h0.996V97.045z
		 M266.988,93.98c-0.063,0.189-0.11,0.379-0.521,0.869c-0.379-0.348-0.869-0.71-1.074-0.869H266.988z"/>
	<path fill="#FFFFFF" d="M289.109,99.083h1.295v-2.686h2.18c0.095,0,0.332,0,0.332,0.253c0,0.142-0.079,0.19-0.332,0.316v5.024
		h-2.18v-0.932h-1.438c-0.206,0.917-0.884,1.943-1.864,2.717c1.454,0,3.586-0.031,5.008-0.143c0.221-0.016,0.901-0.063,1.58-0.252
		c-0.411,0.71-0.617,1.232-0.869,2.338h-7.757c-1.485,0-2.717-0.458-3.539-1.454c-0.173,0.142-0.584,0.427-1.5,1.058
		c-0.031,0.175-0.047,0.396-0.3,0.396c-0.126,0-0.189-0.111-0.221-0.189l-0.964-1.928c0.885-0.395,1.849-0.821,1.849-1.279v-2.86
		h-1.469v-2.117h3.792v4.914c0,1.438,1.595,1.485,2.78,1.5c-0.537-0.664-1.105-0.869-1.438-0.979
		c0.727-0.221,1.817-0.553,2.465-1.722h-3.191v-4.755l2.291,0.094c0.095,0,0.19,0,0.19,0.19c0,0.142-0.063,0.189-0.3,0.362v2.134
		h1.39v-3.287h-4.061v-1.943h2.228c-0.316-0.395-0.553-0.679-1.327-1.422l1.77-1.216c0.9,0.742,1.659,1.643,1.911,2.038
		c-0.237,0.206-0.363,0.3-0.743,0.601h1.548c0.632-0.964,1.043-1.801,1.249-2.623l2.322,0.853c0.079,0.033,0.174,0.08,0.174,0.222
		c0,0.237-0.222,0.221-0.475,0.206c-0.111,0.236-0.252,0.6-0.71,1.343h2.306v1.943h-3.98V99.083z M280.263,91.5
		c0.79,0.584,2.038,1.769,2.448,2.354c-0.489,0.348-1.327,1.043-1.722,1.485c-0.537-0.695-2.086-2.054-2.338-2.228L280.263,91.5z"/>
	<path fill="#FFFFFF" d="M297.282,99.398h-0.569v-0.695h0.569V99.398z M299.003,101.042h2.275v-5.94h-2.275v-0.632h2.434V92.7
		h-2.434v-0.663c0.269-0.174,0.3-0.189,0.3-0.316c0-0.158-0.094-0.173-0.158-0.173l-1.88-0.143V92.7h-2.654v1.77h2.654v0.632h-2.386
		v5.94h2.386v0.632h-2.654v1.911h2.654v2.259h1.737v-2.259h1.816l0.79,2.164c0.032,0.095,0.111,0.237,0.237,0.237
		c0.189,0,0.205-0.158,0.253-0.506c1.991-0.6,3.57-1.153,4.613-1.532c0.19,0.648,0.315,1.122,0.458,1.675
		c0.711-0.348,1.47-0.648,2.243-0.822c-0.474-2.022-1.232-3.965-2.148-5.829l-2.055,0.836c0.332,0.759,0.633,1.47,0.917,2.307
		c-0.742,0.253-1.327,0.395-2.148,0.601c0.506-1.485,1.043-3.113,1.358-4.502h3.554v-2.117h-7.377v2.117h1.422
		c-0.22,1.343-0.616,2.938-1.216,4.992c-0.048,0.016-0.237,0.047-0.284,0.047v-1.579h-2.434V101.042z M298.924,96.666h0.584v0.695
		h-0.584V96.666z M299.509,99.398h-0.584v-0.695h0.584V99.398z M296.713,96.666h0.569v0.695h-0.569V96.666z M301.863,93.838h6.445
		v-1.975h-6.445V93.838z"/>
	<path fill="#FFFFFF" d="M321.978,94.375h-9.162V92.1h9.162V94.375z M321.046,95.781h0.221c0.38,0,0.759-0.047,1.138-0.142
		l1.517,1.09c-0.174,0.332-0.947,1.863-1.105,2.18c-1.786,3.364-3.413,5.387-7.441,7.077c-0.427-0.758-1.216-1.596-1.706-2.038
		c1.454-0.506,5.04-1.753,6.619-5.861h-9.479v-2.306H321.046z"/>
	<path fill="#FFFFFF" d="M334.542,105.591h-2.718v-7.188c-1.406,0.853-2.844,1.643-4.376,2.243
		c-0.458-0.885-1.185-1.674-1.896-2.259c2.417-0.695,4.707-1.943,6.082-2.907c0.948-0.648,3.175-2.418,4.676-4.329l2.195,1.706
		c0.096,0.079,0.143,0.143,0.143,0.237c0,0.143-0.143,0.221-0.3,0.221c-0.079,0-0.143,0-0.315-0.047
		c-1.106,1.342-3.396,3.16-3.491,3.238V105.591z"/>
	<path fill="#FFFFFF" d="M350.738,93.885c0.348,0,0.632-0.111,0.79-0.253l1.596,1.122c-0.348,0.505-0.49,0.853-0.916,1.88
		c-1.17,2.907-2.022,5.008-4.203,6.872c-1.231,1.058-2.591,1.943-4.043,2.67c-0.412-0.632-1.518-1.849-1.771-2.102
		c2.513-1.011,4.028-2.243,4.866-3.144c0.663-0.695,1.99-2.385,2.56-4.771h-9.085v-2.274H350.738z M350.564,90.788
		c0.521,0.412,1.2,1.138,1.517,1.564c-0.521,0.332-0.647,0.41-1.39,0.948c-0.158-0.205-0.79-0.995-1.485-1.627L350.564,90.788z
		 M353.329,90.741c0.506,0.474,1.106,1.264,1.391,1.737c-0.442,0.284-1.043,0.696-1.312,0.885c-0.38-0.632-0.743-1.09-1.39-1.785
		L353.329,90.741z"/>
	<path fill="#FFFFFF" d="M358.642,91.263c1.532,0.6,2.544,1.027,3.966,1.864c-0.332,0.379-1.28,1.722-1.501,2.053
		c-1.185-0.837-2.48-1.485-3.839-1.974L358.642,91.263z M357.063,94.738c1.232,0.474,3.144,1.659,3.712,2.164
		c-0.568,0.632-1.296,1.707-1.548,2.102c-1.312-1.122-2.591-1.721-3.571-2.148L357.063,94.738z M356.541,103.269
		c4.96-1.707,9.052-5.261,11.121-8.373c0.49,1.058,1.422,1.928,1.627,2.133c-1.374,2.069-3.934,4.281-5.118,5.166
		c-1.026,0.774-3.538,2.433-5.766,3.238c-0.017,0.143-0.063,0.395-0.269,0.395c-0.11,0-0.158-0.079-0.237-0.22L356.541,103.269z"/>
	<polygon fill="#FFFFFF" points="371.236,104.659 371.236,102.621 378.299,102.621 378.299,101.025 371.647,101.025 371.647,98.94 
		378.299,98.94 378.299,97.44 371.442,97.44 371.442,95.37 380.51,95.37 380.51,105.133 378.299,105.133 378.299,104.659 	"/>
	<rect x="383.343" y="97.376" fill="#FFFFFF" width="13.728" height="2.67"/>
	<path fill="#98C570" d="M316.315,117.644c-0.216-0.038-0.452-0.285-0.29-0.427c0.709-0.613,0.916-1.36,1.331-2.06
		c0.15,0.169,0.31,0.304,0.557,0.203c0.049,0.439,0.211,0.907,0.091,1.296C317.776,117.392,317.119,117.784,316.315,117.644"/>
	<path fill="#98C570" d="M321.434,116.034c-0.447-0.077-1.184,0.336-1.212-0.134c-0.04-0.712,1.179-0.611,1.593-1.25
		c0.245,0.31,1.001,0.297,0.631,0.985c-0.125,0.227-0.264,0.473-0.47,0.549C321.829,116.238,321.627,116.067,321.434,116.034"/>
</g>
</svg>
